<?xml version="1.0" standalone="no"?>
<!DOCTYPE svg PUBLIC "-//W3C//DTD SVG 1.1//EN" "http://www.w3.org/Graphics/SVG/1.1/DTD/svg11.dtd" >
<svg xmlns="http://www.w3.org/2000/svg" xmlns:xlink="http://www.w3.org/1999/xlink" version="1.1">
<metadata></metadata>
<defs>
<font id="preloextralight_italic" horiz-adv-x="1085" >
<font-face units-per-em="2048" ascent="1536" descent="-512" />
<missing-glyph horiz-adv-x="368" />
<glyph unicode="&#xfb01;" horiz-adv-x="1048" d="M174 -410l195 1385h-176l4 43l180 6l8 76q26 180 123.5 257t253.5 77q50 0 137 -17t164 -53l-19 -49q-148 65 -286 65q-146 0 -218.5 -69t-93.5 -211l-8 -76h604l-143 -1024h-61l135 975h-543l-194 -1385h-62z" />
<glyph unicode="&#xfb02;" horiz-adv-x="1048" d="M174 -410l195 1385h-176l4 43l180 6l8 76q26 180 123.5 257t253.5 77q48 0 124.5 -15t153.5 -51h50l-191 -1368h-61l182 1315q-146 65 -262 65q-146 0 -218.5 -69t-93.5 -211l-8 -76h328l-8 -49h-328l-194 -1385h-62z" />
<glyph unicode="&#xfb03;" horiz-adv-x="1652" d="M174 -410l195 1385h-176l4 43l180 6l10 84q25 184 96.5 255t208.5 71q63 0 139 -13l-14 -51q-66 10 -123 10q-121 0 -173.5 -66t-74.5 -214l-8 -76h543l8 76q26 180 123.5 257t253.5 77q50 0 137 -17t164 -53l-18 -49q-148 65 -287 65q-146 0 -218 -69t-93 -211l-9 -76 h605l-144 -1024h-61l135 975h-543l-194 -1385h-62l195 1385h-543l-194 -1385h-62z" />
<glyph unicode="&#xfb04;" horiz-adv-x="1652" d="M174 -410l195 1385h-176l4 43l180 6l10 84q25 184 96.5 255t208.5 71q63 0 139 -13l-14 -51q-66 10 -123 10q-121 0 -173.5 -66t-74.5 -214l-8 -76h543l8 76q26 180 123.5 257t253.5 77q48 0 125 -15t154 -51h49l-191 -1368h-61l182 1315q-146 65 -262 65 q-146 0 -218 -69t-93 -211l-9 -76h328l-8 -49h-328l-194 -1385h-62l195 1385h-543l-194 -1385h-62z" />
<glyph horiz-adv-x="0" />
<glyph horiz-adv-x="682" />
<glyph unicode=" "  horiz-adv-x="368" />
<glyph unicode="&#x09;" horiz-adv-x="368" />
<glyph unicode="&#xa0;" horiz-adv-x="368" />
<glyph unicode="!" horiz-adv-x="362" d="M152 0l30 219h62l-31 -219h-61zM213 432l133 961h62l-138 -961h-57z" />
<glyph unicode="&#x22;" horiz-adv-x="772" d="M319 1169l27 224h62l-37 -224h-52zM729 1169l27 224h61l-37 -224h-51z" />
<glyph unicode="#" horiz-adv-x="1236" d="M188 274l13 45h205l94 386h-205l10 45h205l68 274h49l-68 -274h379l68 274h49l-70 -274h205l-10 -45h-205l-94 -386h204l-12 -45h-205l-65 -274h-49l67 274h-379l-67 -274h-49l67 274h-205zM455 319h379l94 386h-379z" />
<glyph unicode="$" horiz-adv-x="1228" d="M156 43l22 57q211 -61 443 -61q86 0 158 19t120.5 50.5t83.5 73t52.5 84.5t23.5 88q7 47 -3 88t-28.5 70.5t-51.5 55.5t-62 42t-70 31t-66 22t-59 15q-65 16 -121.5 37.5t-113 56t-94.5 76t-58 100.5t-10 127q24 169 151 252t322 86l26 184h35l-27 -184 q124 -3 215.5 -17.5t198.5 -45.5l-22 -58q-230 62 -418 62q-108 0 -187.5 -23.5t-126 -65t-70.5 -88.5t-32 -104q-9 -64 16.5 -118.5t65 -88.5t100.5 -63.5t101 -42t90 -25.5q65 -15 118.5 -33.5t106 -50t86 -71t49.5 -96.5t6 -126q-24 -176 -159.5 -274.5t-337.5 -103.5 l-27 -185h-35l27 185q-240 3 -438 63z" />
<glyph unicode="%" horiz-adv-x="1556" d="M274 1133q15 123 91.5 192.5t201.5 69.5q123 0 179.5 -69.5t41.5 -192.5q-19 -125 -95 -195t-199 -70q-125 0 -182 70.5t-38 194.5zM319 1133q-17 -107 28.5 -166.5t150.5 -59.5q104 0 165.5 59t79.5 167q15 107 -30.5 165t-149.5 58q-106 0 -168 -58t-76 -165zM377 0 l952 1393h45l-952 -1393h-45zM963 260q17 124 94 194t200 70t180 -70t40 -194q-17 -123 -93.5 -192.5t-199.5 -69.5t-180.5 69.5t-40.5 192.5zM1008 260q-15 -107 30.5 -165t149.5 -58q106 0 168 58t76 165q15 107 -31 166t-150 59q-105 0 -167 -59t-76 -166z" />
<glyph unicode="&#x26;" horiz-adv-x="1443" d="M190 342q16 127 112 224t314 184q-4 5 -35 43.5t-46.5 63t-37.5 66.5t-29.5 86.5t-0.5 90.5q11 80 50 142t95 98t119.5 54.5t130.5 18.5q149 0 225 -75t56 -212q-7 -52 -31 -97.5t-72 -94.5t-132 -99t-203 -98l413 -479q174 166 256 459h60q-86 -311 -281 -502l164 -195 l-51 -45l-162 197q-215 -192 -524 -192q-215 0 -314.5 98t-75.5 264zM250.5 299.5q-2.5 -27.5 6.5 -58t21.5 -60t41 -56t65.5 -46.5t94.5 -32t128.5 -12q264 0 463 180l-424 500q-66 -28 -109 -48t-98 -54.5t-89 -69t-61.5 -84.5t-35.5 -109q-1 -23 -3.5 -50.5zM530 1104 q-7 -47 0.5 -90t32 -86.5t47 -73.5t62.5 -78q64 25 117 50.5t106 59t90.5 68.5t64 80t33.5 94q9 61 -6.5 107.5t-42.5 70.5t-65 38.5t-64.5 18t-50.5 3.5q-71 0 -128.5 -21t-91.5 -51t-58 -68t-33.5 -67.5t-12.5 -54.5z" />
<glyph unicode="'" horiz-adv-x="362" d="M319 1169l27 224h62l-37 -224h-52z" />
<glyph unicode="(" horiz-adv-x="675" d="M274 696q34 248 162.5 505t319.5 478h45q-203 -262 -316.5 -500.5t-148.5 -482.5q-33 -244 13 -481.5t175 -501.5h-45q-128 221 -183.5 479t-21.5 504z" />
<glyph unicode=")" horiz-adv-x="675" d="M70 -287q203 264 316 502t146 481q35 243 -11 482t-175 501h45q127 -220 182.5 -477.5t20.5 -505.5t-162 -506t-317 -477h-45z" />
<glyph unicode="*" horiz-adv-x="862" d="M258 1141l16 43l297 -68l35 277h41l-41 -277l312 68l8 -43l-318 -56l164 -256l-37 -26l-157 262l-228 -262l-28 26l233 256z" />
<glyph unicode="+" horiz-adv-x="1024" d="M223 516l6 53h334l49 334h54l-50 -334h334l-6 -53h-334l-47 -334h-53l47 334h-334z" />
<glyph unicode="," horiz-adv-x="362" d="M104 -266l64 266h-16l30 219h62l-31 -219l-78 -266h-31z" />
<glyph unicode="-" horiz-adv-x="1024" d="M223 516l6 53h721l-6 -53h-721z" />
<glyph unicode="." horiz-adv-x="362" d="M152 0l30 219h62l-31 -219h-61z" />
<glyph unicode="/" horiz-adv-x="1105" d="M145 0l953 1393h57l-952 -1393h-58z" />
<glyph unicode="0" horiz-adv-x="1208" d="M230.5 480.5q2.5 102.5 19.5 226.5q17 121 43 220.5t70.5 192t103 155.5t144 100.5t190.5 37.5q88 0 155 -25.5t109 -73.5t68 -110.5t34 -144.5t5 -167t-17 -185q-17 -124 -44 -226.5t-72 -197.5t-104 -160t-144.5 -104t-190.5 -39t-179.5 39t-115.5 104t-59 160 t-15.5 197.5zM313 707q-92 -674 295 -674q392 0 484 674q10 75 14.5 140t2.5 132.5t-13.5 122.5t-34.5 104t-58 82t-88 52.5t-120 19.5q-392 0 -482 -653z" />
<glyph unicode="1" horiz-adv-x="729" d="M231 1126q325 162 498 277h41l-197 -1403h-61l182 1319l-448 -246z" />
<glyph unicode="2" horiz-adv-x="1126" d="M152 0l8 68q206 130 363.5 255t247 219.5t148.5 185.5t80 149t29 114q10 54 5.5 98.5t-12.5 79t-26.5 62t-38 47t-45 33.5t-48.5 23t-49 13.5t-45 6.5t-38 2q-91 0 -180.5 -21t-204.5 -75l-12 51q111 51 207 76.5t209 25.5q103 0 177 -33t113.5 -90t53 -127.5t2.5 -152.5 q-64 -448 -850 -951v-4h737l-8 -55h-823z" />
<glyph unicode="3" horiz-adv-x="1167" d="M160 74l30 49q149 -90 377 -90q388 0 434 323q10 66 -6 121.5t-59 99t-121.5 68.5t-187.5 25h-160l8 53h156q177 0 294.5 96.5t137.5 229.5q1 23 3 50t-5 57t-17.5 59t-35 55.5t-57 46t-84 31.5t-115.5 12q-185 0 -363 -90l-14 49q180 94 391 94q200 0 290 -96t66 -264 q-19 -133 -117 -223.5t-227 -124.5l-2 -5q150 -21 229.5 -114t59.5 -234q-25 -179 -151 -275.5t-353 -96.5q-263 0 -401 94z" />
<glyph unicode="4" horiz-adv-x="1208" d="M186 412l9 53q222 210 432.5 454.5t347.5 473.5h80l-131 -928h217l-6 -53h-217l-58 -412h-61l57 412h-670zM262 465h600l119 844h-4q-237 -381 -715 -844z" />
<glyph unicode="5" horiz-adv-x="1167" d="M162 82l26 49q97 -55 183.5 -76.5t183.5 -21.5q180 0 305.5 105t151.5 294q5 54 4 106.5t-22 101t-54 85t-92 58.5t-137 22q-201 0 -363 -191l-51 7l152 772h679l-6 -58h-628l-134 -657l5 -2q70 83 165.5 133.5t204.5 50.5q190 0 280 -113.5t62 -312.5 q-32 -214 -175 -334t-353 -120q-111 0 -201.5 26t-185.5 76z" />
<glyph unicode="6" horiz-adv-x="1167" d="M224 348q-4 66 0 129.5t14 136.5q24 175 71 312.5t108 227.5t139 149.5t160 84.5t175 25q62 0 116.5 -7.5t80.5 -14.5t77 -23l-18 -49q-137 41 -258 41q-69 0 -131 -17t-110 -45t-91 -69t-74 -84t-58 -95.5t-44.5 -97.5t-33 -96t-23.5 -85t-15 -71l4 -2q85 108 192 171 t220 63q199 0 292.5 -126t59.5 -355q-20 -144 -91 -252t-172.5 -163.5t-217.5 -55.5q-78 0 -139.5 18.5t-102.5 50.5t-69.5 79.5t-42.5 100.5t-18 119zM284.5 450q-3.5 -81 9.5 -161.5t46.5 -134.5t98.5 -87.5t159 -33.5q149 0 268.5 111.5t147.5 306.5q7 49 7 95.5t-8 96.5 t-30 90.5t-57 73.5t-91.5 51.5t-129.5 18.5q-108 0 -213.5 -67.5t-188.5 -176.5q-15 -102 -18.5 -183z" />
<glyph unicode="7" horiz-adv-x="1024" d="M254 0q56 198 191 457.5t280.5 479.5t284.5 394l2 4h-695l9 58h761l-6 -50q-110 -142 -213.5 -292.5t-211.5 -327.5t-196.5 -365t-140.5 -358h-65z" />
<glyph unicode="8" horiz-adv-x="1208" d="M199 340q8 62 37 116t69.5 93.5t97.5 73.5t113 57.5t125 44.5v4q-75 27 -130 57t-99 72t-62 98t-8 125q22 152 146 242t315 90q188 0 286 -90t78 -240q-10 -69 -41.5 -122.5t-88 -94.5t-117 -69.5t-150.5 -61.5v-4q66 -26 114 -50t97 -58.5t77 -73t42 -91t6 -114.5 q-24 -168 -154.5 -266t-353.5 -98q-220 0 -321.5 97t-77.5 263zM262 344q-9 -64 4 -118t50.5 -99.5t112.5 -71.5t181 -26t187 25.5t131 70.5t77.5 98.5t36.5 116.5q6 44 -1.5 82.5t-22 68t-44 57.5t-56 47t-70.5 40.5t-74.5 34.5t-79.5 32q-85 -27 -148.5 -55t-129 -70.5 t-105 -101t-49.5 -131.5zM403 1079q-17 -122 67 -196.5t245 -122.5q85 27 145.5 54t116 64t88 87t41.5 112q9 69 -9 122.5t-51 83.5t-80.5 49t-89 25.5t-83.5 6.5q-41 0 -83.5 -6t-95 -25.5t-94.5 -49.5t-75 -83t-42 -121z" />
<glyph unicode="9" horiz-adv-x="1167" d="M197 25l16 49q137 -41 260 -41q88 0 164.5 27.5t130.5 70.5t100 105t75 119.5t52.5 127t35 115t20.5 94.5l-4 2q-85 -108 -191.5 -170.5t-220.5 -62.5q-200 0 -292 125.5t-60 355.5q20 144 91 252t172.5 163.5t217.5 55.5q91 0 159.5 -24t110 -69.5t67 -102.5t33 -131.5 t5 -148t-14.5 -159.5q-25 -175 -72 -312.5t-108.5 -228t-139.5 -149t-160 -83.5t-175 -25q-62 0 -116 7.5t-79 14.5t-77 23zM339 846.5q2 -49.5 9 -97t30.5 -89.5t57.5 -74t91 -51t130 -19q108 0 213.5 67.5t186.5 176.5q16 101 20 182t-9 161.5t-46.5 135t-98.5 88 t-159 33.5q-149 0 -269.5 -111.5t-148.5 -306.5q-9 -46 -7 -95.5z" />
<glyph unicode=":" horiz-adv-x="362" d="M152 0l30 219h62l-31 -219h-61zM252 721l31 221h61l-31 -221h-61z" />
<glyph unicode=";" horiz-adv-x="362" d="M104 -266l64 266h-16l30 219h62l-31 -219l-78 -266h-31zM252 721l31 221h61l-31 -221h-61z" />
<glyph unicode="&#x3c;" horiz-adv-x="778" d="M219 489l6 46l525 335l-11 -59l-452 -299l368 -299l-8 -59z" />
<glyph unicode="=" horiz-adv-x="1024" d="M195 311l6 54h721l-7 -54h-720zM252 721l8 53h721l-8 -53h-721z" />
<glyph unicode="&#x3e;" horiz-adv-x="778" d="M172 152l6 59l457 301l-371 301l10 59l426 -337l-6 -46z" />
<glyph unicode="?" horiz-adv-x="983" d="M317 1337q213 76 363 76q72 0 129 -14t92.5 -38.5t60.5 -57t34 -70t12.5 -77.5t-4.5 -79q-11 -78 -43 -140t-74.5 -102.5t-92 -73.5t-98 -60.5t-89.5 -55.5t-69.5 -66.5t-35.5 -86.5l-8 -62h-56l8 62q8 54 37 97.5t69.5 74t88.5 59.5t96.5 60.5t90 69t72 94t40.5 126.5 q11 74 -7 129t-48.5 83.5t-77.5 45t-80.5 20t-71.5 3.5q-131 0 -325 -72zM377 0l31 219h61l-31 -219h-61z" />
<glyph unicode="@" horiz-adv-x="1699" d="M133 518q25 176 109 328.5t208 259.5t286 168t339 61q206 0 365.5 -83t239 -236.5t51.5 -347.5q-16 -110 -62 -206t-119 -169.5t-178 -115.5t-229 -42h-56l11 80h-4q-125 -94 -283 -94q-122 0 -187.5 56t-50.5 161q18 121 107.5 180.5t263.5 59.5h205l16 104 q14 110 -26.5 164.5t-163.5 54.5q-115 0 -266 -45l-7 39q145 49 287 49q135 0 191 -57.5t37 -202.5l-72 -506q110 0 201 34t149 86t100.5 120t62.5 128.5t28 119.5q20 141 -20 260t-125.5 198t-207 123.5t-262.5 44.5q-225 0 -416.5 -96t-318 -273t-158.5 -405 q-22 -158 13.5 -293t117 -229.5t206.5 -147.5t278 -53l-11 -41q-163 0 -296 58.5t-217.5 160t-121.5 242.5t-14 303zM625 342q-9 -82 40.5 -130t163.5 -48q157 0 275 94l39 283h-205q-109 0 -177.5 -26t-97 -67.5t-38.5 -105.5z" />
<glyph unicode="A" horiz-adv-x="1331" d="M111 0l718 1403h82l310 -1403h-70l-92 412h-670l-211 -412h-67zM414 467h637l-191 856h-4z" />
<glyph unicode="B" horiz-adv-x="1249" d="M172 0l195 1393h524q183 0 269 -97q67 -76 68 -190q0 -31 -5 -64q-19 -130 -94.5 -216t-204.5 -115v-4q140 -25 202 -119q46 -70 46 -161q0 -31 -5 -65q-24 -169 -134 -265.5t-296 -96.5h-565zM244 59h493q155 0 249 79.5t116 230.5q4 29 4 56q0 102 -62 169 q-80 84 -258 84h-456zM338 737h457q316 0 360 299q5 31 5 59q0 95 -56 157q-72 80 -225 81h-457z" />
<glyph unicode="C" horiz-adv-x="1269" d="M234 541q4 76 16 166q17 123 44 221t77.5 191.5t119.5 155.5t174 100t238 38q231 0 443 -63l-23 -58q-140 36 -233.5 49t-190.5 13q-121 0 -216.5 -37t-156.5 -95.5t-105.5 -146t-67.5 -174t-38 -194.5q-11 -80 -16 -147q-2 -34 -2 -68t2 -69q4 -70 20.5 -125.5 t47.5 -105t77 -82.5t114.5 -52t156.5 -19q98 0 194.5 12.5t245.5 48.5l6 -57q-229 -63 -459 -63q-96 0 -171.5 19.5t-127.5 54.5t-88 87t-54.5 112t-24.5 136q-4 46 -4 91q0 31 2 61z" />
<glyph unicode="D" horiz-adv-x="1331" d="M172 0l195 1393h460q465 0 465 -498q0 -87 -14 -188q-99 -707 -645 -707h-461zM244 59h397q478 0 571 648q12 87 14 161v18q0 64 -10 128q-10 72 -38.5 129t-74 100.5t-117 66.5t-165.5 23h-399z" />
<glyph unicode="E" horiz-adv-x="1146" d="M172 0l195 1393h813l-6 -60h-752l-82 -577h657l-6 -60h-659l-88 -637h760l-9 -59h-823z" />
<glyph unicode="F" horiz-adv-x="1095" d="M172 0l195 1393h792l-6 -60h-731l-88 -618h637l-6 -60h-637l-92 -655h-64z" />
<glyph unicode="G" horiz-adv-x="1310" d="M234 541q4 76 16 166q17 123 44 221t77.5 191.5t119.5 155.5t174 100t238 38q212 0 424 -63l-22 -58q-143 37 -227.5 49.5t-178.5 12.5q-121 0 -216.5 -37t-156.5 -95.5t-105.5 -146t-67.5 -174t-38 -194.5q-11 -80 -15 -147q-3 -34 -3 -68t3 -69q4 -70 20 -125.5 t47 -105t77 -82.5t114.5 -52t156.5 -19q202 0 381 115l63 458h-342l8 58h406l-76 -559q-66 -38 -117 -61.5t-144 -46.5t-192 -23q-96 0 -171.5 19.5t-127.5 54.5t-88 87t-54.5 112t-24.5 136q-4 46 -4 91q0 31 2 61z" />
<glyph unicode="H" horiz-adv-x="1310" d="M172 0l195 1393h63l-90 -637h840l90 637h63l-194 -1393h-64l96 696h-839l-96 -696h-64z" />
<glyph unicode="I" horiz-adv-x="407" d="M172 0l195 1393h63l-194 -1393h-64z" />
<glyph unicode="J" horiz-adv-x="632" d="M45 -8l14 55q69 -10 127 -10q122 0 177.5 66.5t78.5 215.5l150 1074h63l-149 -1076q-28 -190 -103 -263.5t-213 -73.5q-75 0 -145 12z" />
<glyph unicode="K" horiz-adv-x="1257" d="M172 0l195 1393h63l-121 -856l930 856h76l-602 -564l426 -829h-80l-402 778l-360 -329l-61 -449h-64z" />
<glyph unicode="L" horiz-adv-x="1105" d="M172 0l195 1393h63l-186 -1334h739l-8 -59h-803z" />
<glyph unicode="M" horiz-adv-x="1638" d="M172 0l195 1393h77l390 -1289h4l743 1289h80l-195 -1393h-63l176 1257h-4l-731 -1257h-51l-379 1257h-4l-177 -1257h-61z" />
<glyph unicode="N" horiz-adv-x="1331" d="M172 0l195 1393h63l678 -1270h4l180 1270h62l-195 -1393h-63l-680 1266h-4l-179 -1266h-61z" />
<glyph unicode="O" horiz-adv-x="1413" d="M250 707q17 123 44 221t77.5 191.5t119.5 155.5t174 100t238 38q96 0 172 -19.5t128 -53.5t88 -85t55 -109q20 -58 26 -132q4 -48 5 -96q1 -26 -1 -52q-4 -74 -16 -159q-18 -126 -45.5 -226.5t-78.5 -197t-120.5 -161t-175 -103.5t-238.5 -39t-227 39t-145 103 q-52 66 -76 162q-23 94 -23 192q0 101 19 231zM300 430q4 -70 19 -126t45.5 -107.5t76 -86t114 -55t156.5 -20.5t162.5 20.5t129.5 55t100 86.5t75 107.5t53.5 126.5t37.5 135.5t25 140.5q10 75 14 139q2 32 2 65t-2 67q-4 68 -19 122t-46 103.5t-76.5 82t-114.5 51.5 t-157 19t-162 -19t-128.5 -51.5t-99 -82t-74.5 -103t-53.5 -122t-37.5 -132t-25 -139.5t-15 -141q-2 -32 -2 -66.5t2 -69.5z" />
<glyph unicode="P" horiz-adv-x="1228" d="M172 0l195 1393h542q183 0 269 -106q67 -83 66 -200q0 -33 -5 -69q-24 -173 -136.5 -273t-297.5 -100h-479l-90 -645h-64zM334 705h473q156 0 251.5 80.5t115.5 232.5q5 33 5 63q0 99 -56 165q-73 86 -226 87h-475z" />
<glyph unicode="Q" horiz-adv-x="1413" d="M234 546q4 74 16 161q17 123 44 221t77.5 191.5t119.5 155.5t174 100t238 38q96 0 172 -19.5t128 -53.5t88 -85t55.5 -109.5t25.5 -131.5q5 -48 5 -96q0 -26 -1 -52q-4 -73 -16 -159q-17 -122 -44 -221t-75.5 -191.5t-114 -155t-163 -101.5t-220.5 -42q29 -50 97.5 -83 t160.5 -44q48 -4 97 -4q60 0 121 6l-7 -61q-72 -7 -131 -7q-46 0 -84 4q-113 11 -196.5 54.5t-120.5 118.5q-91 2 -163 23.5t-121.5 57.5t-83.5 88.5t-52 112.5t-24 134q-4 45 -4 90q0 30 2 60zM300 430q5 -70 19.5 -126t45 -107.5t76 -86t114 -55t156.5 -20.5t162.5 20.5 t129.5 55t100 86.5t75 107.5t53.5 126.5t37.5 135.5t25 140.5q10 76 14 139q2 32 2 65t-2 67q-4 69 -19 122.5t-46 103t-76.5 82t-114.5 51.5t-157 19t-162 -19t-128.5 -51.5t-99 -82t-74.5 -103t-53.5 -122t-37.5 -132t-25 -139.5q-10 -76 -15 -141q-2 -32 -2 -66t2 -70z " />
<glyph unicode="R" horiz-adv-x="1259" d="M172 0l195 1393h542q121 0 202 -55q81 -54 111 -142q20 -58 20 -126q0 -34 -5 -69q-21 -159 -132 -266t-278 -117l314 -618h-76l-305 612h-441l-83 -612h-64zM328 670h456q155 0 261 89.5t129 241.5q4 30 4 58q0 107 -58 181q-72 94 -223 93h-475z" />
<glyph unicode="S" horiz-adv-x="1228" d="M156 43l22 57q231 -61 443 -61q106 0 190 28.5t134.5 76t78.5 100.5t35 110q3 19 3 37q0 43 -16 81q-22 53 -54 84.5t-91 59t-92.5 38t-89.5 24.5q-64 15 -121 36.5t-113.5 56t-94.5 76.5t-58 101q-13 39 -13 83q0 22 3 44q17 118 87 195.5t170.5 110t231.5 32.5 q220 0 432 -63l-22 -58q-141 37 -231.5 49.5t-186.5 12.5q-371 0 -416 -281q-2 -16 -2 -32q0 -29 7 -55q11 -42 33 -72.5t56.5 -57.5t68 -45t76 -34.5t72 -25t62.5 -16.5q65 -15 118.5 -33.5t106 -50t86 -71t49.5 -96.5q10 -35 10 -75q0 -25 -4 -51q-26 -180 -167 -279 t-349 -99q-242 0 -454 63z" />
<glyph unicode="T" horiz-adv-x="1146" d="M317 1333l9 60h884l-6 -60h-411l-187 -1333h-65l188 1333h-412z" />
<glyph unicode="U" horiz-adv-x="1310" d="M240 492l127 901h63l-127 -901q-5 -34 -7 -58t-4 -64q0 -11 -1 -21q0 -27 3 -48q4 -29 14 -66t27.5 -63.5t47 -53.5t68.5 -44t95 -28t124 -11q81 0 148.5 17.5t113 44t82 68t57.5 79t37 88t22.5 83.5t12.5 77l127 901h63l-127 -901q-37 -264 -170.5 -388t-384.5 -124 t-349 124q-72 90 -72 254q0 62 10 134z" />
<glyph unicode="V" horiz-adv-x="1331" d="M305 1393h70l309 -1323h2l662 1323h67l-702 -1403h-82z" />
<glyph unicode="W" horiz-adv-x="1925" d="M305 1393h70l188 -1309h2l553 1309h80l186 -1309h2l556 1309h67l-594 -1403h-86l-184 1302h-4l-549 -1302h-86z" />
<glyph unicode="X" horiz-adv-x="1331" d="M119 0l604 737l-354 656h77l328 -598h4l494 598h78l-543 -656l405 -737h-77l-377 680h-4l-561 -680h-74z" />
<glyph unicode="Y" horiz-adv-x="1269" d="M305 1393h74l334 -828h4l565 828h72l-619 -901l-67 -492h-66l68 492z" />
<glyph unicode="Z" horiz-adv-x="1146" d="M113 0l6 51l993 1278l2 4h-774l8 60h860l-6 -52l-991 -1278v-4h831l-8 -59h-921z" />
<glyph unicode="[" horiz-adv-x="614" d="M111 -287l276 1966h352l-6 -43h-291l-262 -1880h289l-6 -43h-352z" />
<glyph unicode="\" horiz-adv-x="1105" d="M340 1393h57l564 -1393h-58z" />
<glyph unicode="]" horiz-adv-x="614" d="M70 -287l4 43h291l262 1880h-289l8 43h352l-276 -1966h-352z" />
<glyph unicode="^" horiz-adv-x="778" d="M297 1044l264 390h55l156 -390h-41l-147 351l-246 -351h-41z" />
<glyph unicode="_" horiz-adv-x="1024" d="M127 -166l6 43h721l-4 -43h-723z" />
<glyph unicode="`" horiz-adv-x="468" d="M332 1393h55l102 -246h-40z" />
<glyph unicode="a" d="M203 512q16 118 50 212.5t89 167.5t137 112.5t187 39.5q100 0 188.5 -32.5t144.5 -87.5h5l26 102h47l-145 -1026h-62l17 102h-4q-72 -56 -170.5 -89t-200.5 -33q-321 0 -321 372q0 73 12 160zM256 331q7 -87 33.5 -153t90.5 -105.5t159 -39.5q101 0 195.5 38t160.5 85 l100 712q-50 46 -134.5 84.5t-186.5 38.5q-77 0 -140.5 -26t-107.5 -70t-77 -106.5t-52.5 -130t-30.5 -146.5q-12 -67 -12 -130q0 -26 2 -51z" />
<glyph unicode="b" d="M152 -2l200 1436h62l-72 -512h4q73 56 170 89t197 33q105 0 176 -40t104 -112q33 -70 43 -168q3 -32 3 -67q0 -69 -13 -145q-17 -118 -51 -212.5t-89.5 -167.5t-137.5 -112.5t-187 -39.5q-101 0 -188.5 32.5t-145.5 87.5h-4l-24 -102h-47zM233 156q47 -45 133.5 -84 t188.5 -39q95 0 169 38.5t121 107.5t75 150.5t43 182.5q9 76 11 146v11q0 63 -16 119q-17 60 -48 105.5t-88 71.5t-134 26q-100 0 -196.5 -38.5t-157.5 -84.5z" />
<glyph unicode="c" horiz-adv-x="983" d="M196 298q-5 39 -5 82q0 63 12 132q17 120 55 214t101 167t159.5 112t220.5 39q161 0 326 -43l-18 -51q-150 41 -314 41q-88 0 -160.5 -25.5t-124 -69t-89.5 -105.5t-60 -130.5t-33 -148.5q-9 -74 -9 -141q1 -3 1 -7q0 -70 22.5 -131t60.5 -105.5t104 -69.5t153 -25 q164 0 324 41l8 -51q-176 -43 -340 -43q-124 0 -210 39.5t-128 110t-56 168.5z" />
<glyph unicode="d" d="M203 512q16 118 50 212.5t89 167.5t137 112.5t187 39.5q99 0 186.5 -32.5t144.5 -87.5h4l72 510h62l-201 -1434h-62l15 102h-4q-72 -56 -170.5 -89t-200.5 -33q-321 0 -321 372q0 73 12 160zM256 331q7 -87 33.5 -153t90.5 -105.5t159 -39.5q101 0 195.5 38t160.5 85 l100 712q-50 46 -134.5 84.5t-186.5 38.5q-77 0 -140.5 -26t-107.5 -70t-77 -106.5t-52.5 -130t-30.5 -146.5q-12 -67 -12 -130q0 -26 2 -51z" />
<glyph unicode="e" d="M194 338q0 14 -1 28q0 69 10 146q17 120 55 214.5t101.5 167t159.5 111.5t220 39q78 0 138.5 -17.5t97 -48t60 -68.5t31.5 -84q7 -41 7 -79v-10q-1 -43 -10 -88q-10 -57 -37 -129h-758q-11 -65 -11 -123q1 -37 5 -73q12 -90 48.5 -154t115.5 -100.5t197 -36.5 q185 0 325 41l4 -51q-158 -43 -344 -43q-105 0 -183.5 25.5t-126 72.5t-75 113t-29.5 147zM272 565h703q30 79 33 146q1 17 1 33q0 40 -8 74q-12 48 -42 88.5t-88.5 63.5t-139.5 23q-85 0 -154.5 -23t-118 -61.5t-86.5 -94.5t-61 -116t-39 -133z" />
<glyph unicode="f" horiz-adv-x="706" d="M174 -410l195 1385h-176l4 43l180 6l22 162q18 138 86.5 193t206.5 55q63 0 139 -13l-14 -51q-66 10 -123 10q-119 0 -169.5 -45t-65.5 -159l-21 -152h291l-8 -49h-291l-194 -1385h-62z" />
<glyph unicode="g" d="M82 -387l20 51q150 -41 314 -41q111 0 193 26.5t136 79t85.5 125t46.5 171.5l10 77h-4q-72 -56 -170.5 -89t-200.5 -33q-321 0 -321 372q0 73 12 160q16 118 50 212.5t89 167.5t137 112.5t187 39.5q100 0 188.5 -32.5t144.5 -87.5h5l26 102h47l-141 -1001 q-32 -225 -156 -340t-370 -115q-163 0 -328 43zM256 331q7 -87 33.5 -153t90.5 -105.5t159 -39.5q101 0 195.5 38t160.5 85l100 712q-50 46 -134.5 84.5t-186.5 38.5q-77 0 -140.5 -26t-107.5 -70t-77 -106.5t-52.5 -130t-30.5 -146.5q-12 -67 -12 -130q0 -26 2 -51z" />
<glyph unicode="h" d="M152 0l200 1434h62l-80 -570h4q224 180 434 180q268 0 268 -249q0 -37 -6 -80l-100 -715h-62l99 705q6 39 6 72q0 214 -232 214q-190 0 -419 -176l-113 -815h-61z" />
<glyph unicode="i" horiz-adv-x="362" d="M152 0l143 1024h61l-143 -1024h-61zM315 1176l31 217h62l-31 -217h-62z" />
<glyph unicode="j" horiz-adv-x="444" d="M-162 -418l15 51q66 -10 120 -10q117 0 168 45t68 160l168 1196h61l-172 -1206q-20 -138 -87 -193t-204 -55q-67 0 -137 12zM397 1176l31 217h61l-30 -217h-62z" />
<glyph unicode="k" horiz-adv-x="1075" d="M152 0l200 1434h62l-129 -918l723 508h79l-458 -330l336 -694h-74l-311 659l-306 -213l-61 -446h-61z" />
<glyph unicode="l" horiz-adv-x="362" d="M152 0l200 1434h62l-201 -1434h-61z" />
<glyph unicode="m" horiz-adv-x="1699" d="M152 0l143 1024h61l-22 -160h4q45 39 80 65t85 55.5t104.5 44.5t111.5 15q237 0 264 -194q212 194 403 194q269 0 269 -249q0 -37 -6 -80l-101 -715h-61l98 705q6 39 6 72q0 214 -231 214q-52 0 -106 -17t-106 -48.5t-85.5 -56t-77.5 -60.5q0 -49 -6 -107l-98 -702h-62 l99 707q5 35 5 66q0 218 -231 218q-43 0 -89 -13t-77.5 -27.5t-77.5 -45t-63 -44t-59 -46.5l-113 -815h-61z" />
<glyph unicode="n" d="M152 0l143 1024h61l-22 -160h4q224 180 434 180q268 0 268 -249q0 -37 -6 -80l-100 -715h-62l99 705q6 39 6 72q0 214 -232 214q-190 0 -419 -176l-113 -815h-61z" />
<glyph unicode="o" horiz-adv-x="1126" d="M195 298q-5 37 -5 76q0 65 13 138q17 120 53.5 214.5t97 167t150.5 111.5t205 39q93 0 162.5 -25.5t112 -72.5t66.5 -113t26 -147q0 -10 1 -20q0 -73 -10 -154q-17 -119 -54 -214t-97.5 -167.5t-151 -111.5t-205.5 -39t-194.5 39.5t-118.5 110t-51 168.5zM256 364 q0 -3 -1 -6q-1 -66 19 -124q20 -60 54 -105t95.5 -70.5t143.5 -25.5q83 0 151 26t115.5 69.5t82.5 106t55.5 130t32.5 147.5q10 81 10 151q0 67 -20 127t-54 105t-95 70.5t-143 25.5q-83 0 -151 -26t-115.5 -69.5t-83 -105.5t-55.5 -130t-31 -148q-9 -78 -10 -148z" />
<glyph unicode="p" d="M92 -410l203 1434h61l-14 -102h4q73 56 170 89t197 33q105 0 176 -40t104 -111.5t43 -168.5q3 -33 3 -67q0 -69 -13 -145q-17 -118 -51 -212.5t-89.5 -167.5t-137.5 -112.5t-187 -39.5q-100 0 -186.5 32.5t-143.5 87.5h-4l-73 -510h-62zM233 156q47 -45 133.5 -84 t188.5 -39q95 0 169 38.5t121 107.5t75 150.5t43 182.5q9 76 11 146v11q0 64 -16 119q-17 61 -48 106t-88 71t-134 26q-100 0 -196.5 -38.5t-157.5 -84.5z" />
<glyph unicode="q" d="M203 512q16 118 50 212.5t89 167.5t137 112.5t187 39.5q100 0 188.5 -32.5t144.5 -87.5h5l26 102h47l-203 -1436h-61l74 512h-4q-72 -56 -170.5 -89t-200.5 -33q-321 0 -321 372q0 73 12 160zM256 331q7 -87 33.5 -153t90.5 -105.5t159 -39.5q101 0 195.5 38t160.5 85 l100 712q-50 46 -134.5 84.5t-186.5 38.5q-77 0 -140.5 -26t-107.5 -70t-77 -106.5t-52.5 -130t-30.5 -146.5q-12 -67 -12 -130q0 -26 2 -51z" />
<glyph unicode="r" horiz-adv-x="757" d="M152 0l143 1024h61l-22 -164h4q104 79 223 131.5t232 52.5l-7 -59q-119 0 -245 -54.5t-217 -119.5l-111 -811h-61z" />
<glyph unicode="s" horiz-adv-x="983" d="M123 23l18 51q154 -41 381 -41q57 0 104 11t78.5 27t56 39.5t37.5 44t22.5 44.5t12.5 37t5 26q2 17 2 33q0 21 -4 37q-6 30 -32.5 62t-87.5 58t-157 46q-63 13 -108.5 26.5t-89.5 36.5t-69 53q-26 30 -38 74q-7 27 -7 57q0 21 3 43q18 120 113.5 188t263.5 68 q207 0 372 -43l-20 -51q-150 41 -356 41q-78 0 -137.5 -18.5t-90 -41t-51 -56t-25.5 -49.5t-8 -35q-2 -17 -2 -33q-1 -20 3 -38q6 -30 31 -62.5t84 -59t151 -45.5q186 -39 262 -103q62 -52 62 -142q0 -21 -3 -44q-19 -134 -116 -209t-265 -75q-230 0 -395 43z" />
<glyph unicode="t" horiz-adv-x="768" d="M193 975l4 43l180 6l47 287h53l-39 -287h332l-8 -49h-332l-92 -662q-8 -57 -8 -103q0 -28 3 -52q8 -62 51.5 -93.5t127.5 -31.5q54 0 123 10v-51q-77 -12 -148 -12q-92 0 -142.5 28t-68.5 100q-10 37 -10 89q0 48 8 108l95 670h-176z" />
<glyph unicode="u" d="M195 309l100 715h61l-98 -705q-7 -36 -8 -70q0 -21 4 -41q8 -52 30 -91t73 -61.5t126 -22.5q189 0 418 176l115 815h61l-143 -1024h-62l23 158h-4q-230 -178 -436 -178q-267 0 -267 245q0 39 7 84z" />
<glyph unicode="v" horiz-adv-x="1146" d="M270 1024h72l238 -956h4l510 956h67l-555 -1034h-71z" />
<glyph unicode="w" horiz-adv-x="1617" d="M270 1024h68l166 -956h4l416 956h59l156 -956h4l426 956h63l-467 -1034h-67l-158 938h-4l-412 -938h-67z" />
<glyph unicode="x" horiz-adv-x="1116" d="M111 0l481 535l-307 489h71l281 -442h4l399 442h70l-442 -489l338 -535h-76l-309 485h-5l-436 -485h-69z" />
<glyph unicode="y" horiz-adv-x="1146" d="M84 -418l14 53q46 -10 88 -10q28 0 55.5 6.5t49.5 16t45.5 28t40.5 33t37.5 41t32.5 43t31 47.5t27 45.5t25.5 46.5t22.5 41l-283 1051h72l254 -975h4l494 975h67l-577 -1124q-88 -172 -182.5 -251t-213.5 -79q-61 0 -104 12z" />
<glyph unicode="z" horiz-adv-x="962" d="M84 0l4 49l832 920v4h-670l8 51h752l-9 -49l-829 -920v-4h713l-6 -51h-795z" />
<glyph unicode="{" horiz-adv-x="696" d="M244 668l8 57q35 5 62 17t45.5 33t31 41.5t21 54.5t12.5 57.5t10 64.5q8 61 16.5 193t16.5 194q13 90 41 149.5t74.5 92t102.5 45t136 12.5l-6 -37q-32 0 -49 -0.5t-48 -5.5t-50 -14t-44 -28t-40.5 -45.5t-30 -68t-21.5 -94.5q-9 -63 -21.5 -223t-21.5 -223 q-16 -116 -62.5 -171t-125.5 -71v-4q75 -16 106 -70.5t15 -170.5q-9 -60 -42.5 -222t-41.5 -227q-6 -41 -5.5 -75.5t4.5 -59.5t15.5 -44.5t22 -32t29.5 -21.5t33 -13.5t37.5 -6.5t37 -2.5t37.5 -0.5l-4 -35q-53 0 -92.5 5t-75 18t-56.5 34.5t-37 54.5t-16 79.5t6 107.5 q9 61 38.5 193t37.5 194q5 36 7 55.5t4 51t-1 49t-10.5 40t-20.5 35t-34.5 23.5t-50.5 15z" />
<glyph unicode="|" horiz-adv-x="389" d="M141 -205l254 1802h45l-254 -1802h-45z" />
<glyph unicode="}" horiz-adv-x="696" d="M70 -287l4 35q31 0 48.5 0.5t48 5.5t50 14.5t44 28t40.5 45.5t30.5 68t22.5 94q7 58 19.5 220t21.5 229q16 115 63 170t126 71v4q-74 16 -105.5 71.5t-15.5 170.5q9 64 43 224t43 222q12 91 -1 147t-54 77.5t-71.5 26.5t-86.5 5l6 37q52 0 91.5 -5t74.5 -18t56.5 -35 t37 -55t15.5 -79t-7 -107q-8 -64 -36.5 -196t-36.5 -191q-5 -38 -7 -56t-4 -50.5t0.5 -48.5t10 -39.5t20.5 -35.5t34.5 -23t51.5 -15l-8 -57q-31 -4 -55.5 -15t-41.5 -23.5t-30.5 -35t-21.5 -40t-15 -49t-10 -50.5t-8 -56q-8 -57 -17 -189.5t-18 -197.5q-12 -91 -40 -150.5 t-74.5 -91.5t-102 -44.5t-135.5 -12.5z" />
<glyph unicode="~" horiz-adv-x="933" d="M182 612q85 83 133.5 113.5t100.5 30.5q51 0 184.5 -66.5t165.5 -66.5q35 0 68.5 20.5t78.5 85.5l21 -20q-43 -68 -82 -101t-92 -33q-39 0 -174 67t-174 67q-25 0 -44 -5t-61 -32.5t-104 -81.5z" />
<glyph unicode="&#xa1;" horiz-adv-x="362" d="M98 -369l138 961h55l-131 -961h-62zM264 803l31 221h61l-30 -221h-62z" />
<glyph unicode="&#xa2;" horiz-adv-x="1062" d="M205 512q31 233 171.5 379.5t350.5 152.5l27 185h37l-27 -185q91 -3 158.5 -20.5t142.5 -52.5l-16 -51q-68 27 -97.5 37.5t-82.5 20.5t-113 11l-133 -956q60 1 114 11t88.5 21.5t108.5 38.5l2 -51q-82 -36 -155 -53t-167 -20l-26 -185h-37l27 185q-209 6 -307.5 152.5 t-65.5 379.5zM268 512q-18 -128 9.5 -233t107.5 -172.5t203 -71.5l133 954q-124 -4 -223 -72t-155.5 -173t-74.5 -232z" />
<glyph unicode="&#xa3;" horiz-adv-x="1251" d="M133 0l6 55h103l88 625h-103l9 51h102l47 344q17 118 86.5 195.5t169.5 110t231 32.5q133 0 244.5 -29t183.5 -79l-34 -52q-165 101 -398 101q-87 0 -157 -16t-116 -42.5t-78.5 -64t-48.5 -77t-22 -85.5l-47 -338h516l-8 -51h-516l-88 -625h764l-8 -55h-926z" />
<glyph unicode="&#xa4;" horiz-adv-x="1050" d="M160 100l180 176q-84 97 -66 234q21 141 134 233l-136 185l19 16l137 -184q100 74 215 74q112 0 193 -74l184 184l16 -16l-184 -183q89 -96 68 -235q-9 -68 -44.5 -129t-89.5 -105l132 -176l-21 -18l-133 178q-98 -72 -213 -72q-117 0 -195 72l-180 -178zM299 510 q-17 -121 58.5 -209t197.5 -88t222.5 88t117.5 209q19 121 -57.5 210t-198.5 89q-121 0 -221 -88.5t-119 -210.5z" />
<glyph unicode="&#xa5;" horiz-adv-x="1314" d="M322 471l6 43h358l-358 879h73l334 -828h4l568 828h69l-602 -879h356l-4 -43h-370l-66 -471h-63l65 471h-370z" />
<glyph unicode="&#xa6;" horiz-adv-x="348" d="M121 -205l117 819h45l-117 -819h-45zM260 778l115 819h45l-115 -819h-45z" />
<glyph unicode="&#xa7;" horiz-adv-x="1193" d="M94 -264l23 57q233 -61 440 -61q106 0 190.5 28.5t135 76t79 100.5t35.5 110q9 65 -12.5 118t-54 84.5t-91.5 59t-92.5 38t-89.5 24.5q-64 15 -120.5 36.5t-113 56t-95 76.5t-58.5 101t-10 127h68q-7 -46 4 -87.5t32.5 -72t56 -58t68.5 -46t75.5 -34.5t72 -25t63.5 -17 q65 -15 117.5 -33.5t105 -50t85.5 -71t50 -96.5t7 -126q-26 -180 -166.5 -279.5t-349.5 -99.5q-239 0 -455 64zM346 1382q17 118 88 195.5t172 110t232 32.5q218 0 430 -63l-23 -58q-141 37 -231 49.5t-185 12.5q-86 0 -155 -16t-114 -41.5t-76.5 -63t-47.5 -76.5t-22 -84 q-7 -46 4 -87.5t32.5 -72t56 -57.5t68 -45t76 -34.5t72.5 -25t63 -16.5q409 -93 365 -380h-68q7 47 -2.5 88t-27 69.5t-51.5 54.5t-60.5 41.5t-70.5 31t-66.5 22t-61.5 16.5q-64 15 -120.5 36.5t-113 56t-95 76.5t-58.5 101t-10 127z" />
<glyph unicode="&#xa8;" horiz-adv-x="872" d="M303 1182l29 211h55l-31 -211h-53zM846 1182l28 211h56l-31 -211h-53z" />
<glyph unicode="&#xa9;" horiz-adv-x="1566" d="M158 696q28 196 147.5 361t298.5 260.5t375 95.5q147 0 273 -56.5t210 -152t122.5 -228.5t17.5 -280q-16 -118 -68 -227.5t-131.5 -197.5t-177.5 -153.5t-213.5 -101.5t-233.5 -36t-223 36t-184 101.5t-133 153.5t-75 197.5t-5 227.5zM195 696q-25 -187 44.5 -343.5 t214 -247.5t330.5 -91q111 0 220.5 34t202.5 97t168.5 147t124.5 188t65 216q20 139 -17 265t-116.5 217t-198.5 144.5t-258 53.5q-186 0 -356.5 -90.5t-284 -247.5t-139.5 -342zM563 705q24 171 116 261.5t255 90.5q132 0 233 -68l-22 -39q-93 66 -215 66q-147 0 -224 -81 t-98 -230q-46 -332 232 -332q130 0 229 61l14 -35q-113 -67 -252 -67q-320 0 -268 373z" />
<glyph unicode="&#xaa;" horiz-adv-x="612" d="M256 1012q11 76 68.5 112.5t169.5 36.5h135l10 76q9 71 -18 105t-107 34q-74 0 -168 -16v24q86 19 176 19q88 0 124.5 -37t23.5 -129l-52 -356h-30l6 51q-92 -62 -186 -62q-78 0 -119.5 37.5t-32.5 104.5zM289 1014q-8 -52 25.5 -85.5t105.5 -33.5q97 0 180 63l25 183 h-136q-103 0 -148.5 -32.5t-51.5 -94.5z" />
<glyph unicode="&#xab;" horiz-adv-x="1261" d="M219 489l6 46l525 337l-9 -59l-454 -301l368 -301l-8 -59zM702 489l7 46l524 337l-8 -59l-455 -301l369 -301l-6 -59z" />
<glyph unicode="&#xac;" horiz-adv-x="1208" d="M264 516l6 53h824l-39 -284h-54l33 231h-770z" />
<glyph unicode="&#xad;" horiz-adv-x="1024" d="M223 516l6 53h721l-6 -53h-721z" />
<glyph unicode="&#xae;" horiz-adv-x="1566" d="M158 696q28 196 147.5 361t298.5 260.5t375 95.5q147 0 273 -56.5t210 -152t122.5 -228.5t17.5 -280q-16 -118 -68 -227.5t-131.5 -197.5t-177.5 -153.5t-213.5 -101.5t-233.5 -36t-223 36t-184 101.5t-133 153.5t-75 197.5t-5 227.5zM195 696q-25 -187 44.5 -343.5 t214 -247.5t330.5 -91q111 0 220.5 34t202.5 97t168.5 147t124.5 188t65 216q20 139 -17 265t-116.5 217t-198.5 144.5t-258 53.5q-186 0 -356.5 -90.5t-284 -247.5t-139.5 -342zM594 344l98 705h271q113 0 164.5 -59.5t39.5 -158.5q-14 -100 -78 -159t-165 -62l194 -266 h-55l-191 260h-196l-37 -260h-45zM680 645h217q98 0 155.5 47.5t69.5 138.5q12 81 -31.5 129t-134.5 48h-225z" />
<glyph unicode="&#xaf;" horiz-adv-x="864" d="M315 1257l4 43h590l-6 -43h-588z" />
<glyph unicode="&#xb0;" horiz-adv-x="536" d="M268 1223q9 70 66.5 120t128.5 50q70 0 113 -49.5t34 -120.5q-10 -72 -67.5 -122t-128.5 -50t-113.5 50t-32.5 122zM301 1223q-9 -60 25 -100t94 -40t105.5 40t52.5 100q8 59 -26.5 98t-92.5 39q-60 0 -106 -39.5t-52 -97.5z" />
<glyph unicode="&#xb1;" horiz-adv-x="1024" d="M170 143l8 54h334l45 323h-334l6 53h334l49 332h54l-48 -332h334l-8 -53h-334l-45 -323h334l-6 -54h-723z" />
<glyph unicode="&#xb2;" horiz-adv-x="647" d="M266 1085l6 41q126 79 215 152t132.5 130.5t62.5 96.5t23 74q7 45 -2 79.5t-25.5 52t-40.5 28.5t-42 13.5t-36 2.5q-90 0 -192 -47l-9 31q116 53 213 53q100 0 142.5 -58t31.5 -145q-31 -220 -419 -467v-2h362l-4 -35h-418z" />
<glyph unicode="&#xb3;" horiz-adv-x="667" d="M270 1114l19 33q77 -49 188 -49q58 0 100.5 15t64 39t31.5 45.5t13 43.5q10 76 -30 121t-150 45h-80l4 33h78q87 0 144 46.5t65 110.5q1 17 2 37t-8 40.5t-24 37t-45.5 27t-72.5 10.5q-88 0 -184 -49l-6 31q88 51 201 51q98 0 143 -47.5t33 -132.5q-8 -66 -56 -111 t-114 -64q74 -12 112.5 -58.5t28.5 -115.5q-25 -188 -254 -188q-132 0 -203 49z" />
<glyph unicode="&#xb4;" horiz-adv-x="468" d="M297 1147l174 246h53l-186 -246h-41z" />
<glyph unicode="&#xb5;" d="M-244 -418l15 51q66 -10 120 -10q65 0 109.5 19t71 59.5t40 86.5t23.5 116l160 1120h61l-102 -725q-29 -266 229 -266q189 0 418 176l115 815h61l-143 -1024h-62l23 158h-4q-220 -171 -418 -174q-208 -3 -244 151l-32 -233q-25 -186 -98 -259t-208 -73q-65 0 -135 12z " />
<glyph unicode="&#xb6;" horiz-adv-x="1138" d="M236 999q26 183 153 288.5t313 105.5h535l-4 -33h-168l-191 -1360h-36l190 1360h-139l-109 -756h-188q-184 0 -282.5 109t-73.5 286z" />
<glyph unicode="&#xb7;" horiz-adv-x="440" d="M264 526l31 215h57l-30 -215h-58z" />
<glyph unicode="&#xb8;" horiz-adv-x="593" d="M80 -395l14 28q77 -20 115 -20q43 0 76.5 13.5t51 34.5t26.5 40t12 37t-0.5 36t-16.5 37.5t-45.5 31.5t-81.5 12l21 145h33l-19 -121q72 -2 117 -37t35 -106q-9 -71 -65 -113.5t-140 -42.5q-53 0 -133 25z" />
<glyph unicode="&#xb9;" horiz-adv-x="626" d="M262 1085l4 33h221l86 621q-37 -20 -109.5 -59.5t-109.5 -59.5l-8 31q166 81 248 137h24l-94 -670h221l-4 -33h-479z" />
<glyph unicode="&#xba;" horiz-adv-x="663" d="M274 1137q16 124 78.5 195t175.5 71t155 -71t24 -195q-39 -267 -254 -267q-113 0 -155 71.5t-24 195.5zM305.5 1018.5q6.5 -53.5 45.5 -87.5t106 -34q181 0 219 240q30 239 -152 239q-99 0 -151.5 -66.5t-65.5 -172.5q-8 -65 -1.5 -118.5z" />
<glyph unicode="&#xbb;" horiz-adv-x="1261" d="M172 152l6 59l457 301l-371 301l10 59l426 -337l-6 -46zM655 152l9 59l454 301l-370 301l10 59l426 -337l-4 -46z" />
<glyph unicode="&#xbc;" horiz-adv-x="1638" d="M207 676l4 33h221l86 620q-44 -23 -124.5 -67t-94.5 -52l-10 31q173 85 250 137h24l-94 -669h221l-6 -33h-477zM520 0l953 1393h30l-952 -1393h-31zM1073 203l6 33q257 241 385 460h52l-66 -460h106l-4 -33h-106l-27 -203h-39l29 203h-336zM1120 236h293l57 409 q-122 -188 -350 -409z" />
<glyph unicode="&#xbd;" horiz-adv-x="1638" d="M207 676l4 33h221l86 620q-44 -23 -124.5 -67t-94.5 -52l-10 31q173 85 250 137h24l-94 -669h221l-6 -33h-477zM479 0l953 1393h30l-952 -1393h-31zM1108 0l4 41q407 255 432 453q7 45 -1.5 79.5t-25 52t-40.5 28.5t-41.5 13.5t-36.5 2.5q-91 0 -193 -47l-8 30 q115 54 215 54q98 0 140.5 -58.5t31.5 -144.5q-31 -218 -418 -467v-2h363l-4 -35h-418z" />
<glyph unicode="&#xbe;" horiz-adv-x="1638" d="M211 705l18 32q77 -49 189 -49q58 0 100.5 15t64 39t31.5 45.5t13 43.5q10 76 -30.5 121t-150.5 45h-79l4 33h78q86 0 143 47t65 111q6 21 1 47t-16.5 49t-45.5 39t-86 16q-91 0 -184 -49l-11 31q91 51 203 51q100 0 145 -47.5t33 -132.5q-8 -66 -56.5 -110.5 t-115.5 -63.5q75 -12 114.5 -58.5t29.5 -115.5q-12 -91 -76.5 -140t-179.5 -49q-131 0 -201 50zM520 0l953 1393h30l-952 -1393h-31zM1073 203l6 33q257 241 385 460h52l-66 -460h106l-4 -33h-106l-27 -203h-39l29 203h-336zM1120 236h293l57 409q-122 -188 -350 -409z" />
<glyph unicode="&#xbf;" horiz-adv-x="983" d="M117.5 -132q-3.5 40 3.5 79q11 78 43 140t74.5 102.5t92 73.5t97.5 60.5t89 55.5t69 66.5t35 86.5l8 62h57l-8 -62q-7 -54 -36 -97.5t-69.5 -74.5t-88.5 -59.5t-96.5 -60.5t-90.5 -69.5t-72.5 -93.5t-40.5 -126q-10 -74 7.5 -129t48.5 -83.5t77.5 -45t80 -20t71.5 -3.5 q132 0 326 72l12 -55q-213 -76 -363 -76q-72 0 -128.5 14t-91.5 38.5t-60 57t-34 70t-12.5 77.5zM657 803l31 221h62l-31 -221h-62z" />
<glyph unicode="&#xc0;" horiz-adv-x="1331" d="M111 0l718 1403h82l310 -1403h-70l-92 412h-670l-211 -412h-67zM414 467h637l-191 856h-4zM727 1700h55l103 -246h-41z" />
<glyph unicode="&#xc1;" horiz-adv-x="1331" d="M111 0l718 1403h82l310 -1403h-70l-92 412h-670l-211 -412h-67zM414 467h637l-191 856h-4zM864 1477l174 245h54l-187 -245h-41z" />
<glyph unicode="&#xc2;" horiz-adv-x="1331" d="M111 0l718 1403h82l310 -1403h-70l-92 412h-670l-211 -412h-67zM414 467h637l-191 856h-4zM635 1495l252 246h43l182 -246h-41l-166 209l-229 -209h-41z" />
<glyph unicode="&#xc3;" horiz-adv-x="1331" d="M111 0l718 1403h82l310 -1403h-70l-92 412h-670l-211 -412h-67zM414 467h637l-191 856h-4zM569 1571q81 81 131 112t103 31q32 0 69 -21t64.5 -46.5t59.5 -46.5t55 -21q34 0 68 22t79 89l21 -21q-88 -133 -175 -133q-32 0 -77.5 33t-91 66.5t-78.5 33.5q-45 0 -79.5 -19 t-127.5 -100z" />
<glyph unicode="&#xc4;" horiz-adv-x="1331" d="M111 0l718 1403h82l310 -1403h-70l-92 412h-670l-211 -412h-67zM414 467h637l-191 856h-4zM580 1516l30 208h54l-31 -208h-53zM1122 1516l31 208h53l-30 -208h-54z" />
<glyph unicode="&#xc5;" horiz-adv-x="1331" d="M111 0l718 1403h82l310 -1403h-70l-92 412h-670l-211 -412h-67zM414 467h637l-191 856h-4zM745 1618q9 63 56.5 104t109.5 41q63 0 99.5 -41t29.5 -104q-9 -63 -57 -104t-111 -41t-99.5 41t-27.5 104zM778 1618q-8 -50 20 -83.5t79 -33.5q50 0 87.5 33.5t45.5 83.5 q5 50 -23 83.5t-78 33.5q-51 0 -88.5 -33.5t-42.5 -83.5z" />
<glyph unicode="&#xc6;" horiz-adv-x="1896" d="M111 0l968 1393h850l-6 -60h-752l-81 -577h657l-6 -60h-660l-88 -637h760l-8 -59h-823l92 662h-373l-463 -662h-67zM672 715h348l88 616h-4z" />
<glyph unicode="&#xc7;" horiz-adv-x="1269" d="M232.5 517q2.5 86 17.5 190q17 123 44 221t77.5 191.5t119.5 155.5t174 100t238 38q231 0 443 -63l-23 -58q-140 36 -233.5 49t-190.5 13q-121 0 -216.5 -37t-156.5 -95.5t-105.5 -146t-67.5 -174t-38 -194.5q-11 -80 -15.5 -147t0 -137t20.5 -125.5t47 -105t77 -82.5 t114.5 -52t156.5 -19q98 0 194.5 12.5t245.5 48.5l6 -57q-226 -63 -452 -63l-15 -101q73 -2 117.5 -37t34.5 -106q-9 -71 -64 -113.5t-141 -42.5q-54 0 -131 25l12 28q5 -1 18 -5t21.5 -6t21.5 -4.5t27.5 -3.5t30.5 -1q43 0 75.5 13t50 34.5t25.5 40t11 37.5q3 18 -0.5 36 t-16.5 37.5t-45.5 31.5t-81.5 12l17 125q-106 3 -185.5 30t-129.5 77t-80.5 113t-40.5 147t-7.5 170z" />
<glyph unicode="&#xc8;" horiz-adv-x="1146" d="M172 0l195 1393h813l-6 -60h-752l-82 -577h657l-6 -60h-659l-88 -637h760l-9 -59h-823zM676 1700h55l103 -246h-41z" />
<glyph unicode="&#xc9;" horiz-adv-x="1146" d="M172 0l195 1393h813l-6 -60h-752l-82 -577h657l-6 -60h-659l-88 -637h760l-9 -59h-823zM739 1477l174 245h54l-187 -245h-41z" />
<glyph unicode="&#xca;" horiz-adv-x="1146" d="M172 0l195 1393h813l-6 -60h-752l-82 -577h657l-6 -60h-659l-88 -637h760l-9 -59h-823zM569 1495l252 246h43l183 -246h-41l-166 209l-230 -209h-41z" />
<glyph unicode="&#xcb;" horiz-adv-x="1146" d="M172 0l195 1393h813l-6 -60h-752l-82 -577h657l-6 -60h-659l-88 -637h760l-9 -59h-823zM492 1516l30 208h53l-30 -208h-53zM1034 1516l31 208h53l-31 -208h-53z" />
<glyph unicode="&#xcc;" horiz-adv-x="407" d="M172 0l195 1393h63l-194 -1393h-64zM268 1700h56l102 -246h-41z" />
<glyph unicode="&#xcd;" horiz-adv-x="407" d="M172 0l195 1393h63l-194 -1393h-64zM391 1477l174 245h53l-186 -245h-41z" />
<glyph unicode="&#xce;" horiz-adv-x="407" d="M170 0l195 1393h63l-195 -1393h-63zM174 1495l252 246h43l182 -246h-41l-166 209l-229 -209h-41z" />
<glyph unicode="&#xcf;" horiz-adv-x="407" d="M117 1516l30 208h54l-31 -208h-53zM174 0l195 1393h63l-194 -1393h-64zM659 1516l31 208h53l-30 -208h-54z" />
<glyph unicode="&#xd0;" horiz-adv-x="1335" d="M164 684l6 45h109l92 664h463q545 0 450 -686q-99 -707 -645 -707h-463l94 684h-106zM248 59h397q112 0 203.5 36.5t152.5 96.5t106.5 146t70.5 175t39 194q90 626 -392 626h-397l-86 -604h276l-6 -45h-276z" />
<glyph unicode="&#xd1;" horiz-adv-x="1331" d="M172 0l195 1393h63l678 -1270h4l180 1270h62l-195 -1393h-63l-680 1266h-4l-179 -1266h-61zM569 1571q81 81 131 112t103 31q32 0 69 -21t64.5 -46.5t59.5 -46.5t55 -21q34 0 68 22t79 89l21 -21q-88 -133 -175 -133q-32 0 -77.5 33t-91 66.5t-78.5 33.5q-45 0 -79.5 -19 t-127.5 -100z" />
<glyph unicode="&#xd2;" horiz-adv-x="1413" d="M231.5 480.5q0.5 100.5 18.5 226.5q17 123 44 221t77.5 191.5t119.5 155.5t174 100t238 38q96 0 172 -19.5t128 -53.5t88 -85t55.5 -109.5t26 -132t3 -147t-15.5 -159.5q-18 -126 -45.5 -226.5t-78.5 -197t-120.5 -161t-175 -103.5t-238.5 -39t-227 39t-145.5 103.5 t-75 161t-23 197zM300.5 430.5q4.5 -70.5 19 -126.5t45 -107.5t76 -86t114 -55t156.5 -20.5t162.5 20.5t129.5 55t100 86.5t75 107.5t53.5 126.5t37.5 135.5t25 140.5q10 76 14 139.5t0 132t-19 122t-46 103t-76.5 82t-114.5 51.5t-157 19t-162 -19t-128.5 -51.5t-99 -82 t-74.5 -103t-53.5 -122t-37.5 -132t-25 -139.5q-10 -76 -14.5 -141t0 -135.5zM793 1700h55l102 -246h-41z" />
<glyph unicode="&#xd3;" horiz-adv-x="1413" d="M231.5 480.5q0.5 100.5 18.5 226.5q17 123 44 221t77.5 191.5t119.5 155.5t174 100t238 38q96 0 172 -19.5t128 -53.5t88 -85t55.5 -109.5t26 -132t3 -147t-15.5 -159.5q-18 -126 -45.5 -226.5t-78.5 -197t-120.5 -161t-175 -103.5t-238.5 -39t-227 39t-145.5 103.5 t-75 161t-23 197zM300.5 430.5q4.5 -70.5 19 -126.5t45 -107.5t76 -86t114 -55t156.5 -20.5t162.5 20.5t129.5 55t100 86.5t75 107.5t53.5 126.5t37.5 135.5t25 140.5q10 76 14 139.5t0 132t-19 122t-46 103t-76.5 82t-114.5 51.5t-157 19t-162 -19t-128.5 -51.5t-99 -82 t-74.5 -103t-53.5 -122t-37.5 -132t-25 -139.5q-10 -76 -14.5 -141t0 -135.5zM889 1477l174 245h53l-186 -245h-41z" />
<glyph unicode="&#xd4;" horiz-adv-x="1413" d="M231.5 480.5q0.5 100.5 18.5 226.5q17 123 44 221t77.5 191.5t119.5 155.5t174 100t238 38q96 0 172 -19.5t128 -53.5t88 -85t55.5 -109.5t26 -132t3 -147t-15.5 -159.5q-18 -126 -45.5 -226.5t-78.5 -197t-120.5 -161t-175 -103.5t-238.5 -39t-227 39t-145.5 103.5 t-75 161t-23 197zM300.5 430.5q4.5 -70.5 19 -126.5t45 -107.5t76 -86t114 -55t156.5 -20.5t162.5 20.5t129.5 55t100 86.5t75 107.5t53.5 126.5t37.5 135.5t25 140.5q10 76 14 139.5t0 132t-19 122t-46 103t-76.5 82t-114.5 51.5t-157 19t-162 -19t-128.5 -51.5t-99 -82 t-74.5 -103t-53.5 -122t-37.5 -132t-25 -139.5q-10 -76 -14.5 -141t0 -135.5zM676 1495l252 246h43l182 -246h-41l-166 209l-229 -209h-41z" />
<glyph unicode="&#xd5;" horiz-adv-x="1413" d="M231.5 480.5q0.5 100.5 18.5 226.5q17 123 44 221t77.5 191.5t119.5 155.5t174 100t238 38q96 0 172 -19.5t128 -53.5t88 -85t55.5 -109.5t26 -132t3 -147t-15.5 -159.5q-18 -126 -45.5 -226.5t-78.5 -197t-120.5 -161t-175 -103.5t-238.5 -39t-227 39t-145.5 103.5 t-75 161t-23 197zM300.5 430.5q4.5 -70.5 19 -126.5t45 -107.5t76 -86t114 -55t156.5 -20.5t162.5 20.5t129.5 55t100 86.5t75 107.5t53.5 126.5t37.5 135.5t25 140.5q10 76 14 139.5t0 132t-19 122t-46 103t-76.5 82t-114.5 51.5t-157 19t-162 -19t-128.5 -51.5t-99 -82 t-74.5 -103t-53.5 -122t-37.5 -132t-25 -139.5q-10 -76 -14.5 -141t0 -135.5zM610 1571q81 81 131 112t103 31q32 0 69 -21t64.5 -46.5t59.5 -46.5t55 -21q34 0 68 22t79 89l21 -21q-88 -133 -175 -133q-26 0 -60.5 21t-63 45.5t-63 45.5t-60.5 21q-45 0 -79.5 -19 t-127.5 -100z" />
<glyph unicode="&#xd6;" horiz-adv-x="1413" d="M231.5 480.5q0.5 100.5 18.5 226.5q17 123 44 221t77.5 191.5t119.5 155.5t174 100t238 38q96 0 172 -19.5t128 -53.5t88 -85t55.5 -109.5t26 -132t3 -147t-15.5 -159.5q-18 -126 -45.5 -226.5t-78.5 -197t-120.5 -161t-175 -103.5t-238.5 -39t-227 39t-145.5 103.5 t-75 161t-23 197zM300.5 430.5q4.5 -70.5 19 -126.5t45 -107.5t76 -86t114 -55t156.5 -20.5t162.5 20.5t129.5 55t100 86.5t75 107.5t53.5 126.5t37.5 135.5t25 140.5q10 76 14 139.5t0 132t-19 122t-46 103t-76.5 82t-114.5 51.5t-157 19t-162 -19t-128.5 -51.5t-99 -82 t-74.5 -103t-53.5 -122t-37.5 -132t-25 -139.5q-10 -76 -14.5 -141t0 -135.5zM621 1516l30 208h54l-31 -208h-53zM1163 1516l31 208h53l-30 -208h-54z" />
<glyph unicode="&#xd7;" horiz-adv-x="966" d="M184 248l336 295l-252 295l43 36l252 -294l336 294l33 -36l-336 -295l252 -295l-43 -37l-252 293l-336 -293z" />
<glyph unicode="&#xd8;" horiz-adv-x="1413" d="M92 -27l199 211q-92 170 -41 523q17 123 44 221t77.5 191.5t119.5 155.5t174 100t238 38q270 0 387 -162l201 217l27 -22l-207 -221q99 -170 49 -518q-18 -126 -45.5 -226.5t-78.5 -197t-120.5 -161t-175 -103.5t-238.5 -39q-284 0 -393 174l-192 -203zM315 707 q-42 -310 27 -465l903 962q-97 152 -350 152q-88 0 -162 -19t-128.5 -51.5t-99 -82t-74.5 -103t-53.5 -122t-37.5 -132t-25 -139.5zM358 205q95 -170 353 -170q88 0 162.5 20.5t129.5 55t100 86.5t75 107.5t53.5 126.5t37.5 135.5t25 140.5q13 95 16 169.5t-9.5 154.5 t-43.5 138z" />
<glyph unicode="&#xd9;" horiz-adv-x="1310" d="M240 492l127 901h63l-127 -901q-5 -34 -7.5 -58.5t-4 -64t2.5 -68.5t14 -66t27.5 -63.5t47 -53.5t68.5 -44t95 -28t124 -11q81 0 148.5 17.5t113 44t82 68t57.5 79t37 88t22.5 83.5t12.5 77l127 901h63l-127 -901q-37 -264 -170.5 -388t-384.5 -124t-349.5 124t-61.5 388 zM729 1700h55l103 -246h-41z" />
<glyph unicode="&#xda;" horiz-adv-x="1310" d="M240 492l127 901h63l-127 -901q-5 -34 -7.5 -58.5t-4 -64t2.5 -68.5t14 -66t27.5 -63.5t47 -53.5t68.5 -44t95 -28t124 -11q81 0 148.5 17.5t113 44t82 68t57.5 79t37 88t22.5 83.5t12.5 77l127 901h63l-127 -901q-37 -264 -170.5 -388t-384.5 -124t-349.5 124t-61.5 388 zM840 1477l174 245h53l-186 -245h-41z" />
<glyph unicode="&#xdb;" horiz-adv-x="1310" d="M240 492l127 901h63l-127 -901q-5 -34 -7.5 -58.5t-4 -64t2.5 -68.5t14 -66t27.5 -63.5t47 -53.5t68.5 -44t95 -28t124 -11q81 0 148.5 17.5t113 44t82 68t57.5 79t37 88t22.5 83.5t12.5 77l127 901h63l-127 -901q-37 -264 -170.5 -388t-384.5 -124t-349.5 124t-61.5 388 zM625 1495l252 246h43l182 -246h-41l-166 209l-229 -209h-41z" />
<glyph unicode="&#xdc;" horiz-adv-x="1310" d="M240 492l127 901h63l-127 -901q-5 -34 -7.5 -58.5t-4 -64t2.5 -68.5t14 -66t27.5 -63.5t47 -53.5t68.5 -44t95 -28t124 -11q81 0 148.5 17.5t113 44t82 68t57.5 79t37 88t22.5 83.5t12.5 77l127 901h63l-127 -901q-37 -264 -170.5 -388t-384.5 -124t-349.5 124t-61.5 388 zM569 1516l31 208h53l-30 -208h-54zM1112 1516l31 208h53l-31 -208h-53z" />
<glyph unicode="&#xdd;" horiz-adv-x="1269" d="M305 1393h74l334 -828h4l565 828h72l-619 -901l-67 -492h-66l68 492zM838 1477l174 245h53l-186 -245h-41z" />
<glyph unicode="&#xde;" horiz-adv-x="1228" d="M172 0l195 1393h63l-43 -314h475q184 0 270.5 -105t63.5 -267q-24 -173 -138.5 -274t-301.5 -101h-475l-45 -332h-64zM289 391h471q157 0 252.5 82t117.5 234q21 142 -53.5 228.5t-228.5 86.5h-471z" />
<glyph unicode="&#xdf;" horiz-adv-x="1320" d="M174 -410l195 1385h-176l4 43l180 6q57 410 479 410q186 0 272.5 -83.5t65.5 -224.5q-8 -55 -29.5 -101.5t-50.5 -78.5t-62.5 -59t-66 -48t-59.5 -39t-45 -37.5t-21 -39.5q-5 -34 23.5 -55.5t68.5 -34.5q164 -51 235.5 -131t53.5 -203q-10 -69 -39 -124.5t-69.5 -91 t-92.5 -59.5t-105.5 -34t-111.5 -10q-140 0 -258 40l17 52q119 -41 241 -41q63 0 116 12.5t87.5 31t62.5 46t43 51t26 52.5t14 43.5t6 31.5q5 38 -1 72t-19 58.5t-35.5 47.5t-43 37.5t-48.5 29t-46 21.5t-42 16t-30 11q-70 27 -95 56.5t-19 70.5q4 25 22 47.5t44.5 42t58 40 t63.5 46t60 55.5t49 73t28 93q9 65 -7 115t-45.5 77.5t-73 44.5t-80 22t-74.5 5q-68 0 -125 -14t-97 -36t-71.5 -56t-50.5 -67t-33.5 -76t-21.5 -76t-13 -74l-196 -1391h-62z" />
<glyph unicode="&#xe0;" d="M203 512q16 118 50 212.5t89 167.5t137 112.5t187 39.5q100 0 188.5 -32.5t144.5 -87.5h5l26 102h47l-145 -1026h-62l17 102h-4q-72 -56 -170.5 -89t-200.5 -33q-384 0 -309 532zM256 331q7 -87 33.5 -153t90.5 -105.5t159 -39.5q101 0 195.5 38t160.5 85l100 712 q-50 46 -134.5 84.5t-186.5 38.5q-77 0 -140.5 -26t-107.5 -70t-77 -106.5t-52.5 -130t-30.5 -146.5q-17 -94 -10 -181zM575 1393h56l102 -246h-41z" />
<glyph unicode="&#xe1;" d="M203 512q16 118 50 212.5t89 167.5t137 112.5t187 39.5q100 0 188.5 -32.5t144.5 -87.5h5l26 102h47l-145 -1026h-62l17 102h-4q-72 -56 -170.5 -89t-200.5 -33q-384 0 -309 532zM256 331q7 -87 33.5 -153t90.5 -105.5t159 -39.5q101 0 195.5 38t160.5 85l100 712 q-50 46 -134.5 84.5t-186.5 38.5q-77 0 -140.5 -26t-107.5 -70t-77 -106.5t-52.5 -130t-30.5 -146.5q-17 -94 -10 -181zM676 1147l174 246h53l-186 -246h-41z" />
<glyph unicode="&#xe2;" d="M203 512q16 118 50 212.5t89 167.5t137 112.5t187 39.5q100 0 188.5 -32.5t144.5 -87.5h5l26 102h47l-145 -1026h-62l17 102h-4q-72 -56 -170.5 -89t-200.5 -33q-384 0 -309 532zM256 331q7 -87 33.5 -153t90.5 -105.5t159 -39.5q101 0 195.5 38t160.5 85l100 712 q-50 46 -134.5 84.5t-186.5 38.5q-77 0 -140.5 -26t-107.5 -70t-77 -106.5t-52.5 -130t-30.5 -146.5q-17 -94 -10 -181zM477 1147l252 246h43l182 -246h-41l-165 209l-230 -209h-41z" />
<glyph unicode="&#xe3;" d="M203 512q16 118 50 212.5t89 167.5t137 112.5t187 39.5q100 0 188.5 -32.5t144.5 -87.5h5l26 102h47l-145 -1026h-62l17 102h-4q-72 -56 -170.5 -89t-200.5 -33q-384 0 -309 532zM256 331q7 -87 33.5 -153t90.5 -105.5t159 -39.5q101 0 195.5 38t160.5 85l100 712 q-50 46 -134.5 84.5t-186.5 38.5q-77 0 -140.5 -26t-107.5 -70t-77 -106.5t-52.5 -130t-30.5 -146.5q-17 -94 -10 -181zM426 1223q85 82 133 112.5t100 30.5q32 0 69 -21t64.5 -46.5t59.5 -46.5t55 -21q34 0 68.5 22t79.5 88l20 -20q-85 -133 -174 -133q-26 0 -60.5 21 t-62.5 45.5t-62.5 45.5t-60.5 21q-45 0 -81 -19t-128 -100z" />
<glyph unicode="&#xe4;" d="M203 512q16 118 50 212.5t89 167.5t137 112.5t187 39.5q100 0 188.5 -32.5t144.5 -87.5h5l26 102h47l-145 -1026h-62l17 102h-4q-72 -56 -170.5 -89t-200.5 -33q-384 0 -309 532zM256 331q7 -87 33.5 -153t90.5 -105.5t159 -39.5q101 0 195.5 38t160.5 85l100 712 q-50 46 -134.5 84.5t-186.5 38.5q-77 0 -140.5 -26t-107.5 -70t-77 -106.5t-52.5 -130t-30.5 -146.5q-17 -94 -10 -181zM444 1182l29 211h55l-30 -211h-54zM987 1182l29 211h55l-31 -211h-53z" />
<glyph unicode="&#xe5;" d="M203 512q16 118 50 212.5t89 167.5t137 112.5t187 39.5q100 0 188.5 -32.5t144.5 -87.5h5l26 102h47l-145 -1026h-62l17 102h-4q-72 -56 -170.5 -89t-200.5 -33q-384 0 -309 532zM256 331q7 -87 33.5 -153t90.5 -105.5t159 -39.5q101 0 195.5 38t160.5 85l100 712 q-50 46 -134.5 84.5t-186.5 38.5q-77 0 -140.5 -26t-107.5 -70t-77 -106.5t-52.5 -130t-30.5 -146.5q-17 -94 -10 -181zM604 1270q9 63 56.5 104t109.5 41q63 0 99.5 -41t29.5 -104q-9 -63 -57 -104.5t-111 -41.5t-99.5 41.5t-27.5 104.5zM637 1270q-8 -50 19.5 -83.5 t78.5 -33.5q50 0 87.5 33.5t45.5 83.5q5 50 -22.5 83t-77.5 33q-51 0 -89 -33.5t-42 -82.5z" />
<glyph unicode="&#xe6;" horiz-adv-x="1775" d="M156 262q9 66 35.5 117t66.5 83t83 53t97 31t96.5 13.5t92.5 3.5h272l23 148q20 141 -36.5 210.5t-213.5 69.5q-145 0 -338 -37q-2 18 -2 54q161 32 346 36q122 0 188 -38q122 -64 105 -263q129 301 459 301q86 0 150 -21t100.5 -55t57 -80.5t25 -94.5t-1.5 -100t-17 -94 t-26 -79h-760q-10 -88 -8 -162.5t26 -134.5t66 -102.5t111 -65t162 -22.5q183 0 323 41l4 -51q-158 -43 -344 -43q-287 0 -378 194q-206 -194 -461 -194q-150 0 -236 71.5t-67 210.5zM217 266q-14 -106 53.5 -170.5t214.5 -64.5q227 0 422 172q-42 112 -14 317h-268 q-86 0 -152.5 -12.5t-111 -33.5t-75 -54t-46.5 -70t-23 -84zM965 565h700q23 59 32 117t-0.5 115t-38.5 100t-89.5 69.5t-147.5 26.5q-364 0 -456 -428z" />
<glyph unicode="&#xe7;" horiz-adv-x="983" d="M193 342.5q-2 78.5 10 169.5q17 120 55 214t101 167t159.5 112t220.5 39q161 0 326 -43l-18 -51q-150 41 -314 41q-88 0 -160.5 -25.5t-124 -69t-89.5 -105.5t-60 -130.5t-33 -148.5q-9 -78 -8.5 -148.5t23 -131t60.5 -105t104 -69.5t153 -25q164 0 324 41l8 -51 q-176 -43 -338 -43l-14 -101q72 -2 116.5 -37t34.5 -106q-9 -71 -65 -113.5t-142 -42.5q-51 0 -131 25l15 28q3 -1 22.5 -6.5t28 -7t28 -4t39.5 -2.5q43 0 75 13.5t49 34t25.5 40t10.5 37.5q3 19 -0.5 36.5t-16 37t-45 31.5t-81.5 12l18 125q-92 4 -161.5 31.5t-111.5 75 t-66.5 112.5t-26.5 143.5z" />
<glyph unicode="&#xe8;" d="M193.5 338q-2.5 81 9.5 174q17 120 55 214.5t101.5 167t159.5 111.5t220 39q78 0 138.5 -17.5t97 -48t60 -68.5t31.5 -84t7 -89t-10 -88q-10 -57 -37 -129h-758q-18 -106 -6.5 -195.5t48.5 -154t116 -101t197 -36.5q185 0 325 41l4 -51q-158 -43 -344 -43 q-105 0 -183.5 25.5t-126 72.5t-75 113t-30 147zM272 565h703q30 79 33 146q5 58 -7 106.5t-42 89t-88.5 63.5t-139.5 23q-85 0 -154.5 -23t-118 -61.5t-86.5 -94.5t-61 -116t-39 -133zM616 1393h56l102 -246h-41z" />
<glyph unicode="&#xe9;" d="M193.5 338q-2.5 81 9.5 174q17 120 55 214.5t101.5 167t159.5 111.5t220 39q78 0 138.5 -17.5t97 -48t60 -68.5t31.5 -84t7 -89t-10 -88q-10 -57 -37 -129h-758q-18 -106 -6.5 -195.5t48.5 -154t116 -101t197 -36.5q185 0 325 41l4 -51q-158 -43 -344 -43 q-105 0 -183.5 25.5t-126 72.5t-75 113t-30 147zM272 565h703q30 79 33 146q5 58 -7 106.5t-42 89t-88.5 63.5t-139.5 23q-85 0 -154.5 -23t-118 -61.5t-86.5 -94.5t-61 -116t-39 -133zM719 1147l174 246h53l-186 -246h-41z" />
<glyph unicode="&#xea;" d="M193.5 338q-2.5 81 9.5 174q17 120 55 214.5t101.5 167t159.5 111.5t220 39q78 0 138.5 -17.5t97 -48t60 -68.5t31.5 -84t7 -89t-10 -88q-10 -57 -37 -129h-758q-18 -106 -6.5 -195.5t48.5 -154t116 -101t197 -36.5q185 0 325 41l4 -51q-158 -43 -344 -43 q-105 0 -183.5 25.5t-126 72.5t-75 113t-30 147zM272 565h703q30 79 33 146q5 58 -7 106.5t-42 89t-88.5 63.5t-139.5 23q-85 0 -154.5 -23t-118 -61.5t-86.5 -94.5t-61 -116t-39 -133zM463 1147l252 246h43l182 -246h-41l-166 209l-229 -209h-41z" />
<glyph unicode="&#xeb;" d="M193.5 338q-2.5 81 9.5 174q17 120 55 214.5t101.5 167t159.5 111.5t220 39q78 0 138.5 -17.5t97 -48t60 -68.5t31.5 -84t7 -89t-10 -88q-10 -57 -37 -129h-758q-18 -106 -6.5 -195.5t48.5 -154t116 -101t197 -36.5q185 0 325 41l4 -51q-158 -43 -344 -43 q-105 0 -183.5 25.5t-126 72.5t-75 113t-30 147zM272 565h703q30 79 33 146q5 58 -7 106.5t-42 89t-88.5 63.5t-139.5 23q-85 0 -154.5 -23t-118 -61.5t-86.5 -94.5t-61 -116t-39 -133zM410 1182l28 211h56l-31 -211h-53zM952 1182l29 211h55l-30 -211h-54z" />
<glyph unicode="&#xec;" horiz-adv-x="362" d="M152 0l143 1024h61l-143 -1024h-61zM205 1393h55l102 -246h-40z" />
<glyph unicode="&#xed;" horiz-adv-x="362" d="M152 0l143 1024h61l-143 -1024h-61zM326 1147l174 246h53l-186 -246h-41z" />
<glyph unicode="&#xee;" horiz-adv-x="362" d="M102 1147l252 246h43l183 -246h-41l-166 209l-230 -209h-41zM152 0l143 1024h61l-143 -1024h-61z" />
<glyph unicode="&#xef;" horiz-adv-x="362" d="M49 1182l29 211h55l-31 -211h-53zM152 0l143 1024h61l-143 -1024h-61zM592 1182l29 211h55l-31 -211h-53z" />
<glyph unicode="&#xf0;" horiz-adv-x="1126" d="M193 451q34 230 161 355.5t326 125.5q113 0 202 -63t144 -171l4 2q32 365 -88 527l-207 -180l-22 30l198 174q-102 109 -272 109q-130 0 -272 -45l-2 51q55 17 83 24.5t83.5 15t117.5 7.5q199 0 312 -119l182 162l26 -29l-182 -159q157 -201 94 -654 q-15 -105 -37.5 -190.5t-64 -171t-98.5 -143t-143.5 -93.5t-194.5 -36q-116 0 -202 55.5t-127 163.5t-21 252zM256 451q-14 -99 4 -179.5t61.5 -132t104.5 -79t133 -27.5q94 0 168 33.5t122.5 87.5t83.5 134.5t54 162t31 182.5q-50 108 -137 176t-193 68q-88 0 -159.5 -27 t-117 -69.5t-79 -101t-50.5 -113t-26 -115.5z" />
<glyph unicode="&#xf1;" d="M152 0l143 1024h61l-22 -160h4q224 180 434 180q308 0 262 -329l-100 -715h-62l99 705q42 286 -226 286q-190 0 -419 -176l-113 -815h-61zM397 1223q84 82 132.5 112.5t101.5 30.5q32 0 69 -21t64.5 -46.5t59.5 -46.5t55 -21q34 0 68 22t79 88l21 -20q-85 -133 -175 -133 q-26 0 -60 21t-62.5 45.5t-62.5 45.5t-60 21q-45 0 -81 -19t-128 -100z" />
<glyph unicode="&#xf2;" horiz-adv-x="1126" d="M195 298.5q-12 97.5 8 213.5q17 120 53.5 214.5t97 167t150.5 111.5t205 39q93 0 162.5 -25.5t112 -72.5t67 -113t26 -147t-9.5 -174q-17 -119 -54 -214t-97.5 -167.5t-151 -111.5t-205.5 -39t-194.5 39.5t-118.5 110.5t-51 168.5zM256 364.5q-1 -70.5 18.5 -131 t53.5 -105t95.5 -70t143.5 -25.5q83 0 151 26t115.5 69.5t82.5 106t55.5 130t32.5 147.5q9 77 9.5 147.5t-19 131t-54 105t-95.5 70t-143 25.5q-83 0 -151 -26t-115.5 -69.5t-83 -105.5t-55.5 -130t-31 -148q-9 -77 -10 -147.5zM604 1393h55l103 -246h-41z" />
<glyph unicode="&#xf3;" horiz-adv-x="1126" d="M195 298.5q-12 97.5 8 213.5q17 120 53.5 214.5t97 167t150.5 111.5t205 39q93 0 162.5 -25.5t112 -72.5t67 -113t26 -147t-9.5 -174q-17 -119 -54 -214t-97.5 -167.5t-151 -111.5t-205.5 -39t-194.5 39.5t-118.5 110.5t-51 168.5zM256 364.5q-1 -70.5 18.5 -131 t53.5 -105t95.5 -70t143.5 -25.5q83 0 151 26t115.5 69.5t82.5 106t55.5 130t32.5 147.5q9 77 9.5 147.5t-19 131t-54 105t-95.5 70t-143 25.5q-83 0 -151 -26t-115.5 -69.5t-83 -105.5t-55.5 -130t-31 -148q-9 -77 -10 -147.5zM672 1147l174 246h53l-186 -246h-41z" />
<glyph unicode="&#xf4;" horiz-adv-x="1126" d="M195 298.5q-12 97.5 8 213.5q17 120 53.5 214.5t97 167t150.5 111.5t205 39q93 0 162.5 -25.5t112 -72.5t67 -113t26 -147t-9.5 -174q-17 -119 -54 -214t-97.5 -167.5t-151 -111.5t-205.5 -39t-194.5 39.5t-118.5 110.5t-51 168.5zM256 364.5q-1 -70.5 18.5 -131 t53.5 -105t95.5 -70t143.5 -25.5q83 0 151 26t115.5 69.5t82.5 106t55.5 130t32.5 147.5q9 77 9.5 147.5t-19 131t-54 105t-95.5 70t-143 25.5q-83 0 -151 -26t-115.5 -69.5t-83 -105.5t-55.5 -130t-31 -148q-9 -77 -10 -147.5zM483 1147l252 246h43l183 -246h-41l-166 209 l-230 -209h-41z" />
<glyph unicode="&#xf5;" horiz-adv-x="1126" d="M195 298.5q-12 97.5 8 213.5q17 120 53.5 214.5t97 167t150.5 111.5t205 39q93 0 162.5 -25.5t112 -72.5t67 -113t26 -147t-9.5 -174q-17 -119 -54 -214t-97.5 -167.5t-151 -111.5t-205.5 -39t-194.5 39.5t-118.5 110.5t-51 168.5zM256 364.5q-1 -70.5 18.5 -131 t53.5 -105t95.5 -70t143.5 -25.5q83 0 151 26t115.5 69.5t82.5 106t55.5 130t32.5 147.5q9 77 9.5 147.5t-19 131t-54 105t-95.5 70t-143 25.5q-83 0 -151 -26t-115.5 -69.5t-83 -105.5t-55.5 -130t-31 -148q-9 -77 -10 -147.5zM422 1223q85 82 133 112.5t100 30.5 q32 0 69 -21t64.5 -46.5t59.5 -46.5t55 -21q34 0 68.5 22t79.5 88l20 -20q-85 -133 -174 -133q-26 0 -60.5 21t-62.5 45.5t-62.5 45.5t-60.5 21q-45 0 -81 -19t-128 -100z" />
<glyph unicode="&#xf6;" horiz-adv-x="1126" d="M195 298.5q-12 97.5 8 213.5q17 120 53.5 214.5t97 167t150.5 111.5t205 39q93 0 162.5 -25.5t112 -72.5t67 -113t26 -147t-9.5 -174q-17 -119 -54 -214t-97.5 -167.5t-151 -111.5t-205.5 -39t-194.5 39.5t-118.5 110.5t-51 168.5zM256 364.5q-1 -70.5 18.5 -131 t53.5 -105t95.5 -70t143.5 -25.5q83 0 151 26t115.5 69.5t82.5 106t55.5 130t32.5 147.5q9 77 9.5 147.5t-19 131t-54 105t-95.5 70t-143 25.5q-83 0 -151 -26t-115.5 -69.5t-83 -105.5t-55.5 -130t-31 -148q-9 -77 -10 -147.5zM428 1182l29 211h55l-31 -211h-53zM971 1182 l28 211h56l-31 -211h-53z" />
<glyph unicode="&#xf7;" horiz-adv-x="1024" d="M223 516l6 53h721l-6 -53h-721zM500 123l30 215h58l-31 -215h-57zM588 748l30 215h56l-29 -215h-57z" />
<glyph unicode="&#xf8;" horiz-adv-x="1126" d="M72 -27l166 166q-67 129 -35 373q17 120 53.5 214.5t97 167t150.5 111.5t205 39q213 0 297 -133l165 164l25 -22l-168 -168q71 -131 39 -373q-17 -119 -54 -214t-97.5 -167.5t-151 -111.5t-205.5 -39q-209 0 -299 133l-164 -162zM266 512q-27 -204 25 -317l670 669 q-79 127 -259 127q-83 0 -151 -26t-115.5 -69.5t-83 -105.5t-55.5 -130t-31 -148zM307 158q74 -125 260 -125q83 0 151 26t115.5 69.5t82.5 106t55.5 130t32.5 147.5q26 195 -29 317z" />
<glyph unicode="&#xf9;" d="M195 309l100 715h61l-98 -705q-12 -59 -4.5 -111t30 -91t73.5 -61.5t126 -22.5q189 0 418 176l115 815h61l-143 -1024h-62l23 158h-4q-230 -178 -436 -178q-309 0 -260 329zM553 1393h55l103 -246h-41z" />
<glyph unicode="&#xfa;" d="M195 309l100 715h61l-98 -705q-12 -59 -4.5 -111t30 -91t73.5 -61.5t126 -22.5q189 0 418 176l115 815h61l-143 -1024h-62l23 158h-4q-230 -178 -436 -178q-309 0 -260 329zM651 1147l174 246h54l-187 -246h-41z" />
<glyph unicode="&#xfb;" d="M195 309l100 715h61l-98 -705q-12 -59 -4.5 -111t30 -91t73.5 -61.5t126 -22.5q189 0 418 176l115 815h61l-143 -1024h-62l23 158h-4q-230 -178 -436 -178q-309 0 -260 329zM463 1147l252 246h43l182 -246h-41l-166 209l-229 -209h-41z" />
<glyph unicode="&#xfc;" d="M195 309l100 715h61l-98 -705q-12 -59 -4.5 -111t30 -91t73.5 -61.5t126 -22.5q189 0 418 176l115 815h61l-143 -1024h-62l23 158h-4q-230 -178 -436 -178q-309 0 -260 329zM410 1182l28 211h56l-31 -211h-53zM952 1182l29 211h55l-30 -211h-54z" />
<glyph unicode="&#xfd;" horiz-adv-x="1146" d="M84 -418l14 53q46 -10 88 -10q28 0 55.5 6.5t49.5 16t45.5 28t40.5 33t37.5 41t32.5 43t31 47.5t27 45.5t25.5 46.5t22.5 41l-283 1051h72l254 -975h4l494 975h67l-577 -1124q-88 -172 -182.5 -251t-213.5 -79q-61 0 -104 12zM725 1147l174 246h53l-186 -246h-41z" />
<glyph unicode="&#xfe;" d="M92 -410l260 1844h62l-72 -512h4q73 56 170 89t197 33q105 0 176 -40t104 -111.5t42.5 -169t-9.5 -211.5q-17 -118 -51 -212.5t-89.5 -167.5t-137.5 -112.5t-187 -39.5q-100 0 -186.5 32.5t-143.5 87.5h-4l-73 -510h-62zM233 156q47 -45 133.5 -84t188.5 -39 q95 0 169 38.5t121 107.5t75 150.5t43 182.5q9 76 10.5 146t-15.5 130.5t-48 105.5t-88 71t-134 26q-100 0 -196.5 -38.5t-157.5 -84.5z" />
<glyph unicode="&#xff;" horiz-adv-x="1146" d="M84 -418l14 53q46 -10 88 -10q28 0 55.5 6.5t49.5 16t45.5 28t40.5 33t37.5 41t32.5 43t31 47.5t27 45.5t25.5 46.5t22.5 41l-283 1051h72l254 -975h4l494 975h67l-577 -1124q-88 -172 -182.5 -251t-213.5 -79q-61 0 -104 12zM440 1182l29 211h55l-30 -211h-54zM983 1182 l29 211h55l-31 -211h-53z" />
<glyph unicode="&#x152;" horiz-adv-x="2168" d="M233 546q4 74 17 161q17 123 44 221t77.5 191.5t119.5 155.5t174 100t238 38q402 0 434 -385h2q9 62 26 182.5t26 182.5h813l-9 -60h-749l-82 -577h657l-8 -60h-657l-90 -637h759l-6 -59h-823q8 64 25.5 188.5t25.5 188.5h-2q-26 -80 -66.5 -145t-83 -105t-95.5 -70 t-94.5 -44t-88.5 -22.5t-69.5 -9.5t-45.5 -1q-97 0 -173.5 20.5t-128.5 56t-87.5 89t-53.5 114t-24 136.5t-2 150zM300.5 430.5q4.5 -70.5 19 -126.5t45 -107.5t76 -86t114 -55t156.5 -20.5t162.5 20.5t129.5 55.5t100 87.5t75 109.5t54 130t38.5 140.5t25.5 148.5 q15 105 16 190t-19.5 169.5t-65 141.5t-128.5 92.5t-204 35.5q-88 0 -162 -19t-128.5 -51.5t-99 -82t-74.5 -103t-53.5 -122t-37.5 -132t-25 -139.5q-10 -76 -14.5 -141t0 -135.5z" />
<glyph unicode="&#x153;" horiz-adv-x="1886" d="M195 298.5q-12 97.5 8 213.5q17 120 53.5 214.5t97 167t150.5 111.5t205 39q335 0 352 -350q55 165 173.5 257.5t305.5 92.5q67 0 121 -13t90 -34t62 -51.5t39 -63t19 -70t5 -70.5t-6 -68q-11 -83 -43 -154h-758q-18 -106 -6.5 -195.5t48 -154t115.5 -101t197 -36.5 q186 0 326 41l4 -51q-158 -43 -344 -43q-197 0 -293.5 92.5t-105.5 257.5q-54 -165 -165.5 -257.5t-285.5 -92.5q-115 0 -194.5 39.5t-118.5 110.5t-51 168.5zM256 364.5q-1 -70.5 18.5 -131t53.5 -105t95.5 -70t143.5 -25.5q100 0 178.5 37t130 104t83 151t45.5 187 q9 77 9.5 147.5t-19 131t-54 105t-95.5 70t-143 25.5q-83 0 -151 -26t-115.5 -69.5t-83 -105.5t-55.5 -130t-31 -148q-9 -77 -10 -147.5zM1075 565h703q25 65 30 117q5 48 3 93t-21 84.5t-50.5 69.5t-84.5 47t-123 17q-365 0 -457 -428z" />
<glyph unicode="&#x178;" horiz-adv-x="1269" d="M305 1393h74l334 -828h4l565 828h72l-619 -901l-67 -492h-66l68 492zM549 1516l31 208h53l-31 -208h-53zM1092 1516l30 208h54l-31 -208h-53z" />
<glyph unicode="&#x2c6;" horiz-adv-x="751" d="M297 1147l252 246h43l182 -246h-41l-166 209l-229 -209h-41z" />
<glyph unicode="&#x2dc;" horiz-adv-x="913" d="M309 1223q84 82 132.5 112.5t101.5 30.5q32 0 69 -21t64.5 -46.5t59.5 -46.5t55 -21q34 0 68 22t79 88l20 -20q-85 -133 -174 -133q-26 0 -60 21t-62.5 45.5t-62.5 45.5t-60 21q-45 0 -81 -19t-128 -100z" />
<glyph unicode="&#x2000;" horiz-adv-x="896" />
<glyph unicode="&#x2001;" horiz-adv-x="1792" />
<glyph unicode="&#x2002;" horiz-adv-x="896" />
<glyph unicode="&#x2003;" horiz-adv-x="1792" />
<glyph unicode="&#x2004;" horiz-adv-x="597" />
<glyph unicode="&#x2005;" horiz-adv-x="448" />
<glyph unicode="&#x2006;" horiz-adv-x="298" />
<glyph unicode="&#x2007;" horiz-adv-x="298" />
<glyph unicode="&#x2008;" horiz-adv-x="224" />
<glyph unicode="&#x2009;" horiz-adv-x="358" />
<glyph unicode="&#x200a;" horiz-adv-x="99" />
<glyph unicode="&#x2010;" horiz-adv-x="1024" d="M223 516l6 53h721l-6 -53h-721z" />
<glyph unicode="&#x2011;" horiz-adv-x="1024" d="M223 516l6 53h721l-6 -53h-721z" />
<glyph unicode="&#x2012;" horiz-adv-x="1024" d="M223 516l6 53h721l-6 -53h-721z" />
<glyph unicode="&#x2013;" horiz-adv-x="1415" d="M223 516l6 53h1114l-8 -53h-1112z" />
<glyph unicode="&#x2014;" horiz-adv-x="1556" d="M223 516l6 53h1254l-6 -53h-1254z" />
<glyph unicode="&#x2018;" horiz-adv-x="362" d="M279 905l30 221l74 267h31l-62 -267h19l-31 -221h-61z" />
<glyph unicode="&#x2019;" horiz-adv-x="362" d="M270 905l62 266h-17l31 222h62l-31 -222l-76 -266h-31z" />
<glyph unicode="&#x201a;" horiz-adv-x="362" d="M102 -283l64 267h-16l30 221h62l-31 -221l-78 -267h-31z" />
<glyph unicode="&#x201c;" horiz-adv-x="813" d="M279 905l30 221l74 267h31l-62 -267h19l-31 -221h-61zM729 905l31 221q21 81 74 267h30l-61 -267h18l-30 -221h-62z" />
<glyph unicode="&#x201d;" horiz-adv-x="813" d="M270 905l62 266h-17l31 222h62l-31 -222l-76 -266h-31zM721 905l61 266h-16l31 222h61l-31 -222l-75 -266h-31z" />
<glyph unicode="&#x201e;" horiz-adv-x="813" d="M102 -283l64 267h-16l30 221h62l-31 -221l-78 -267h-31zM553 -283l63 267h-16l31 221h61l-30 -221l-78 -267h-31z" />
<glyph unicode="&#x2022;" horiz-adv-x="444" d="M248 401l31 222h61l-31 -222h-61z" />
<glyph unicode="&#x2026;" horiz-adv-x="1181" d="M152 0l30 219h62l-31 -219h-61zM561 0l31 219h61l-30 -219h-62zM971 0l30 219h62l-31 -219h-61z" />
<glyph unicode="&#x202f;" horiz-adv-x="358" />
<glyph unicode="&#x2039;" horiz-adv-x="778" d="M219 489l6 46l525 337l-9 -59l-454 -301l368 -301l-8 -59z" />
<glyph unicode="&#x203a;" horiz-adv-x="778" d="M172 152l6 59l457 301l-371 301l10 59l426 -337l-6 -46z" />
<glyph unicode="&#x205f;" horiz-adv-x="448" />
<glyph unicode="&#x20ac;" horiz-adv-x="1433" d="M207 530l6 45h147q2 31 15 132q3 19 9 55.5t9 54.5h-147l8 45h152q30 119 81.5 216t126 174t180.5 119t234 42q88 0 162 -16t128 -45.5t83 -50.5t63 -52l3.5 -3.5l3.5 -3.5t4 -3l-33 -53q-175 168 -414 168q-94 0 -174.5 -26.5t-139.5 -71t-106.5 -108.5t-78.5 -134 t-54 -152h465l-18 -45h-463q-3 -18 -9.5 -55t-9.5 -55q-12 -126 -12 -132h471l-18 -45h-449q0 -81 12.5 -151t43 -134t76.5 -108.5t118 -71t164 -26.5q238 0 457 168l18 -53q-5 -3 -14 -10q-45 -32 -77.5 -52t-96 -50.5t-141 -46t-165.5 -15.5q-127 0 -219.5 42t-145.5 118 t-77.5 173t-22.5 217h-155z" />
<glyph unicode="&#x2122;" horiz-adv-x="1601" d="M287 1352l4 41h510l-4 -41h-234l-92 -664h-45l94 664h-233zM922 688l98 705h53l193 -635h4l375 635h55l-98 -705h-43l83 610h-4l-364 -610h-37l-184 610h-4l-84 -610h-43z" />
<glyph unicode="&#x25fc;" horiz-adv-x="1024" d="M0 0v1024h1024v-1024h-1024z" />
</font>
</defs>
</svg>
